<svg xmlns="http://www.w3.org/2000/svg" viewBox="0 0 584.09 378.9"><defs><style>.cls-1{fill:#adf2ed;}.cls-2{fill:#e8e8e8;}.cls-3{fill:#38b2ac;}.cls-4{fill:#bbfff5;}.cls-5{fill:#fffefd;}.cls-6{fill:#e4f4f4;}.cls-7{fill:#272742;}.cls-8{fill:#ffc533;}.cls-9{fill:#f6fafd;}.cls-10{fill:#56d8cf;}.cls-11{fill:#ff5331;}.cls-12{fill:#ffac33;}.cls-13{fill:#cbf4f4;}.cls-14{fill:#ffbe55;}.cls-15{fill:#fff;}.cls-16{fill:#f73;}.cls-17{fill:#3b3b59;}.cls-18{fill:#f7b05c;}.cls-19{fill:#c7fffd;}</style></defs><title>Asset 9</title><g id="Layer_2" data-name="Layer 2"><g id="OBJECTS"><path class="cls-1" d="M12.84,327.93c.2,9.8,1,19.57,1.92,29.32a.82.82,0,0,1-.1.53q110,0,220,.08l219.79.07,123,0c5.72-13.88,3.37-30.7-5.42-42.61-9.6-13-26.79-15.2-35.94-28.75-8.49-12.54-9.71-28.85-11.18-43.69-1.45-14.67-4-31.65-14.69-42.32-12.68-12.69-31.19-8.6-47-10-14.94-1.36-27.11-9.27-35.92-21.88-20.84-29.89-14.53-69.54-27.71-102.51-6.21-15.54-16.83-28.59-32.23-34.41-15-5.67-31.59-4.63-46.91-1.11-16.95,3.89-32.89,11.33-49.25,17.2a160,160,0,0,1-26.47,7.38,111.29,111.29,0,0,1-26.92.91c-9-.63-18-1.27-26.85.74a62.1,62.1,0,0,0-20.44,8.76,67.68,67.68,0,0,0-27.58,36.75c-8.71,28.9.19,64.66-19.61,89.46-18.72,23.45-51.79,22.91-74.54,40C20,253.46,12.12,292.94,12.84,327.93Z"/><path class="cls-2" d="M584.09,357.25,0,356.51S66.64,378.9,304.47,378.9,584.09,357.25,584.09,357.25Z"/><path class="cls-3" d="M10.26,356.76l0,.18H265.58c-2-6.7-7.56-12.12-13.9-15.33-7.14-3.61-15.21-4.83-23.13-6a63.38,63.38,0,0,0,13.82-26.23c1.89-7.39,1.74-16.62-4.54-20.94-4.16-2.87-9.73-2.56-14.65-1.43a53.65,53.65,0,0,0-24,12.52,108.2,108.2,0,0,0-1.92-40c-1.9-7.9-5.79-16.69-13.67-18.72-7.12-1.86-14.35,2.77-19.41,8.11a59.37,59.37,0,0,0-14.88,28.31c-8-14.15-16.25-28.68-29-38.72-6.74-5.29-16.14-9.21-23.74-5.23-5.39,2.82-8.33,9-8.88,15.07s1,12.09,2.43,18q3,11.86,5.93,23.7A87.24,87.24,0,0,0,64.36,278c-4.54-.77-9.49-1.1-13.5,1.16-5.55,3.14-7.53,10.5-6.29,16.75s5,11.68,8.61,16.9L63.5,327.55a42.93,42.93,0,0,0-53.24,29.21Z"/><path class="cls-4" d="M177.53,281v75.27a.76.76,0,0,1-1.51,0V281A.76.76,0,0,1,177.53,281Z"/><path class="cls-4" d="M103.82,320.39q6.93,8.7,13.2,17.9v-23.1a.82.82,0,0,1-.08-.4q-5.19-8.37-11-16.27c-.58-.78.73-1.53,1.31-.76q5.17,7,9.82,14.34V277a.76.76,0,0,1,1.51,0v36.69c5.36-2.58,11.14-4.17,16.37-7,.85-.46,1.61.84.76,1.31-5.48,3-11.57,4.6-17.13,7.4v22.84c4.79-2.72,9.51-5.55,14.13-8.55.82-.52,1.57.78.76,1.31q-7.3,4.72-14.89,9v15.39a.76.76,0,0,1-1.51,0V340.9l-.1-.1q-6.69-9.94-14.16-19.34C102.16,320.71,103.22,319.63,103.82,320.39Z"/><path class="cls-4" d="M163.86,289.85a198.63,198.63,0,0,1,13.54,18.68c.52.82-.79,1.57-1.31.75a196,196,0,0,0-13.29-18.36C162.19,290.18,163.25,289.1,163.86,289.85Z"/><path class="cls-4" d="M162.4,325.69a208.48,208.48,0,0,1,14.85,18.19c.58.79-.74,1.54-1.3.76a206.69,206.69,0,0,0-14.61-17.88C160.69,326.05,161.75,325,162.4,325.69Z"/><path class="cls-4" d="M176.65,326.78c1.55-2.47,3.81-4.53,5.79-6.65s4.21-4.52,6.31-6.79c.66-.71,1.74.35,1.08,1.06l-6.14,6.6-3,3.25a22.84,22.84,0,0,0-2.71,3.27C177.44,328.35,176.13,327.6,176.65,326.78Z"/><path class="cls-4" d="M176.29,294.17q5.49-6.19,11.54-11.85c.71-.66,1.79.4,1.08,1.06q-6,5.65-11.54,11.85C176.72,296,175.65,294.9,176.29,294.17Z"/><path class="cls-3" d="M341,356.91H580.86c1.15-7-5.46-13.25-12.07-16.25a49.35,49.35,0,0,0-33-2.71c6.14-6.77,12-14.18,14.59-22.94s1.34-19.21-5.23-25.56c-6-5.75-15.26-7.09-23.25-4.92s-14.87,7.39-20.64,13.34a60.3,60.3,0,0,0,.16-43.53c-2.49-6.43-7.27-13.17-14.17-13.43-3.47-.12-6.79,1.48-9.62,3.5-7.5,5.33-12.51,13.59-15.5,22.3s-4.13,17.91-5.25,27a48.8,48.8,0,0,0-14.29-16.87c-6.09-4.51-14.5-7.55-21.15-3.91s-8.57,12-9,19.46A94.42,94.42,0,0,0,415.06,321c-7.83-6-17.11-10.33-26.91-11.44s-20.13,1.18-28,7.17C348.07,325.91,343.67,341.91,341,356.91Z"/><path class="cls-4" d="M483.23,332.57V312.88a.72.72,0,0,1-.28-.27,235.82,235.82,0,0,0-14.1-21.31c-.58-.78.73-1.53,1.3-.76q7,9.46,13.08,19.61V263.83a.76.76,0,0,1,1.51,0v67q8.14-8.4,15.82-17.26c.64-.73,1.71.33,1.08,1.06q-8.16,9.47-16.9,18.4V355a.76.76,0,0,1-1.51,0v-5.31a129.23,129.23,0,0,0-12.65-15.46c-.67-.7.39-1.78,1.06-1.07a131.43,131.43,0,0,1,11.59,14V332.9A.62.62,0,0,1,483.23,332.57Z"/><path class="cls-4" d="M424.91,310.08a178.53,178.53,0,0,1,11.2,16c-.1-4.26-.19-8.52-.32-12.78q-.18-5.91-.4-11.82c0-1,1.48-1,1.51,0q.72,19.45,1,38.93a113,113,0,0,0,14-9.19c.76-.59,1.51.72.75,1.31A112.34,112.34,0,0,1,438,342.12l0,1.23c.05,3.94.1,7.89.14,11.83a.76.76,0,0,1-1.51,0q-.06-6.66-.18-13.34a.78.78,0,0,1,0-.34q-.1-6.35-.25-12.68a.81.81,0,0,1-.31-.28,175.39,175.39,0,0,0-12-17.37C423.26,310.4,424.31,309.32,424.91,310.08Z"/><path class="cls-4" d="M513.71,332.35c3.25,3.88,6.31,7.92,9.2,12.08-.27-5.3-.5-10.6-.66-15.9,0-1,1.48-1,1.51,0q.42,13.95,1.35,27.87c.07,1-1.44,1-1.5,0-.22-3.23-.39-6.47-.57-9.71a.77.77,0,0,1-.59-.33q-4.58-6.71-9.8-12.94C512,332.68,513.08,331.6,513.71,332.35Z"/><path class="cls-5" d="M458.84,356.91h-309S108.25,236.66,206.4,243.53c0,0,8.21-82.5,93.18-82.5s97.05,89.76,97.05,89.76S498.51,221.76,458.84,356.91Z"/><path class="cls-6" d="M149.88,356.91h210c-98.2-3-63.48-72.38-63.48-72.38-104.89-20.38-50.11-108.76-50.11-108.76-35.51,23.72-39.89,67.76-39.89,67.76C108.25,236.66,149.88,356.91,149.88,356.91Z"/><path class="cls-7" d="M236.23,203.72l8.63,5.78a44.75,44.75,0,0,1,4.26-5.09,63.57,63.57,0,0,1,6-5.57l.36-.3a67.4,67.4,0,0,1,30.85-14l.34-.05a72.24,72.24,0,0,1,11.94-1h.49q3.93,0,7.51.26a90.53,90.53,0,0,1,10.46,1.3c.95.17,1.89.36,2.8.57,1.54.33,3,.71,4.47,1.11a72.06,72.06,0,0,1,9.42,3.36,63.33,63.33,0,0,1,7.1,3.65l1,.6a60.22,60.22,0,0,1,5.38,3.8,52.1,52.1,0,0,1,4.15,3.7c.27.26.53.52.77.78a32.22,32.22,0,0,1,5,6.45l9.18-4.86a41.87,41.87,0,0,0-7-9.05c-1.18-1.21-2.52-2.49-4-3.79a63.65,63.65,0,0,0-6.69-5c-1-.66-2-1.31-3.14-1.95s-2.38-1.35-3.65-2a79.69,79.69,0,0,0-17.09-6.32c-.44-.11-.89-.22-1.36-.32-1.15-.27-2.33-.53-3.53-.76a98.68,98.68,0,0,0-10-1.41c-1.78-.17-3.64-.29-5.53-.37l-1.55-.06c-1.22,0-2.46-.06-3.75-.06h-1.34c-1.53,0-3,.09-4.47.19-1,.07-2,.15-3,.25l-.55,0a77.92,77.92,0,0,0-38,14.75c-1.35,1-2.62,2-3.79,3a74.39,74.39,0,0,0-6,5.57A55.1,55.1,0,0,0,236.23,203.72Z"/><path class="cls-6" d="M408.18,263.05a19.59,19.59,0,0,1,8.43-1.13A43.86,43.86,0,0,1,439,268.83a42.78,42.78,0,0,1,18.16,25.31,43.86,43.86,0,0,1,.8,17.78,2.52,2.52,0,0,1-3.07,1.76,2.55,2.55,0,0,1-1.76-3.06,38.59,38.59,0,0,0-5.63-26.38A38.45,38.45,0,0,0,418.36,267c-1.31-.09-2.63-.12-3.95-.09a10.63,10.63,0,0,0-3.73.46,2.56,2.56,0,0,1-3.41-.92A2.51,2.51,0,0,1,408.18,263.05Z"/><path class="cls-6" d="M449.61,342.47a60.44,60.44,0,0,0,2.75-16.93,2.56,2.56,0,0,1,2.52-2.49,2.53,2.53,0,0,1,2.48,2.52,65.38,65.38,0,0,1-2.92,18.2,2.56,2.56,0,0,1-3.07,1.77A2.53,2.53,0,0,1,449.61,342.47Z"/><path class="cls-6" d="M370.84,217a65.21,65.21,0,0,1,16.28,35.08,2.57,2.57,0,0,1-1.79,3,2.51,2.51,0,0,1-3.05-1.79,60.55,60.55,0,0,0-14.95-32.78C365.18,218.19,368.68,214.62,370.84,217Z"/><path class="cls-8" d="M228.62,170.88,248,191.3l7.15,7.54.36-.3a67.6,67.6,0,0,1,14.81-9.09,23.91,23.91,0,0,1,12.93-9.06c6.75-2,13.94-1.8,21-1.55,5,.18,10,.38,15,.55l.6,0c0-1.48,0-3,0-4.44q.11-6.16.47-12.33c.33-5.72,1-11.89,5-16,3-3.07,7.38-4.35,11.62-5.15a75.89,75.89,0,0,1,26.38-.37L314.45,89.5ZM316,141.77a16.5,16.5,0,1,1,.62-23.29A16.48,16.48,0,0,1,316,141.77Z"/><path class="cls-9" d="M218.54,172.16,242,196.87l7.15,7.54a63.57,63.57,0,0,1,6-5.57L248,191.3l-19.35-20.42L314.45,89.5l48.95,51.64,10.4,11-31.93,30.27-8.11,7.69a63.33,63.33,0,0,1,7.1,3.65l7.8-7.4,35.4-33.57L315.4,80.33l-5.08,4.82Z"/><path class="cls-10" d="M270.29,189.45a68.24,68.24,0,0,1,16-4.9l.34-.05a72.24,72.24,0,0,1,11.94-1h.49q3.93,0,7.51.26a90.53,90.53,0,0,1,10.46,1.3c.95.17,1.89.36,2.8.57q0-3.09,0-6.18l-.6,0c-5-.17-10-.37-15-.55-7.09-.25-14.28-.49-21,1.55A23.91,23.91,0,0,0,270.29,189.45Z"/><path class="cls-3" d="M319.85,179.41q0,3.09,0,6.18c1.54.33,3,.71,4.47,1.11a72.06,72.06,0,0,1,9.42,3.36l8.11-7.69L373.8,152.1l-10.4-11a75.89,75.89,0,0,0-26.38.37c-4.24.8-8.61,2.08-11.62,5.15-4,4.09-4.71,10.26-5,16q-.36,6.17-.47,12.33C319.86,176.45,319.85,177.93,319.85,179.41Z"/><path class="cls-11" d="M293.34,117.84a16.49,16.49,0,1,0,23.31.64A16.48,16.48,0,0,0,293.34,117.84Z"/><polygon class="cls-5" points="118.31 211.72 114.03 216.01 117.52 219.5 121.81 215.22 126.08 219.5 129.58 216.01 125.3 211.72 129.61 207.41 126.12 203.92 121.81 208.23 117.52 203.95 114.03 207.45 118.31 211.72"/><path class="cls-5" d="M82.75,247.73,59.34,266.87,40.21,243.46l23.4-19.14ZM59.58,264.55,80.43,247.5,63.38,226.64,42.52,243.69Zm.8-8.05,12-9.81-9.82-12-12,9.81Z"/><rect class="cls-5" x="52.08" y="236.2" width="18.8" height="18.8" transform="translate(-141.6 94.41) rotate(-39.28)"/><path class="cls-12" d="M19.3,168.79a16.27,16.27,0,1,1,16.26,16.27A16.29,16.29,0,0,1,19.3,168.79ZM35.56,158.6a10.19,10.19,0,1,0,10.2,10.19A10.2,10.2,0,0,0,35.56,158.6Z"/><path class="cls-12" d="M81.06,187.3a9.56,9.56,0,1,1,9.56,9.56A9.58,9.58,0,0,1,81.06,187.3Zm9.56-6a6,6,0,1,0,6,6A6,6,0,0,0,90.62,181.31Z"/><rect class="cls-13" x="12.64" y="202.04" width="13.32" height="13.32" transform="translate(-115.16 47.92) rotate(-34.62)"/><circle class="cls-13" cx="75.08" cy="150.9" r="8.12"/><path class="cls-14" d="M546.83,168.47l8.24,8.24,8.19-8.17,6.67,6.67-8.18,8.17,8.18,8.19-6.67,6.67-8.19-8.18-8.17,8.18-6.67-6.67,8.17-8.19-8.24-8.24Zm8.24,10.46-8.24-8.24-4.45,4.45,8.24,8.24-8.17,8.19L546.9,196l8.17-8.19,8.19,8.19,4.45-4.45-8.19-8.19,8.19-8.17-4.45-4.45Z"/><path class="cls-5" d="M442.92,201.68l22.33,18.26L447,242.26,424.67,224ZM463,220.16l-19.9-16.27-16.26,19.9,19.89,16.26Zm-19.35-10.8,13.88,11.35-11.35,13.88-13.88-11.35Zm11.67,11.57-11.45-9.36L434.55,223,446,232.38Z"/><path class="cls-11" d="M519.85,203.08a12.95,12.95,0,1,1,12.94-12.94A13,13,0,0,1,519.85,203.08Zm-8.11-12.94a8.11,8.11,0,1,0,8.11-8.11A8.11,8.11,0,0,0,511.74,190.14Z"/><path class="cls-3" d="M569.93,270.1a9.12,9.12,0,1,1,9.12-9.11A9.12,9.12,0,0,1,569.93,270.1ZM564.22,261a5.71,5.71,0,1,0,5.71-5.71A5.71,5.71,0,0,0,564.22,261Z"/><rect class="cls-14" x="542.27" y="216.7" width="12.7" height="12.7" transform="translate(873.35 718.31) rotate(-145.38)"/><circle class="cls-14" cx="489.5" cy="226.06" r="4.08"/><circle class="cls-11" cx="541.61" cy="258.97" r="5.77"/><circle class="cls-11" cx="51.84" cy="132.6" r="5.55"/><circle class="cls-10" cx="119.31" cy="148.65" r="5.3"/><path class="cls-15" d="M84.18,378.82l25.16,0a14,14,0,0,0-2-6.64,6.55,6.55,0,0,0-4-.91,40.36,40.36,0,0,0-15.11,3.14q-6.12-16.38-13.3-32.4A5.44,5.44,0,0,0,72.78,349a52.49,52.49,0,0,0,2.14,6.18Q79.54,367,84.18,378.82Z"/><path class="cls-16" d="M96.77,364.87c.29-8.93.65-18.1,4.45-26.34A118.1,118.1,0,0,1,88.7,332c-4.06,3.23-8.27,6.33-12.59,9.27-.39.26-.79.53-1.16.81q7.17,16,13.3,32.4a40.36,40.36,0,0,1,15.11-3.14,6.55,6.55,0,0,1,4,.91,14.14,14.14,0,0,0-1.74-2.37A16.63,16.63,0,0,0,96.77,364.87Z"/><path class="cls-15" d="M141.44,349.47l-.14-.11-.35.39a4.12,4.12,0,0,0-1,1.52c-.37,1.25.57,2.48,1.48,3.47,3.35,3.65,7,7,10.23,10.76A35.21,35.21,0,0,1,159,377.63l4.82.14.08-2.46a3.5,3.5,0,0,0,.46-.14C158.6,365.31,151.74,355.5,141.44,349.47Z"/><path class="cls-15" d="M163.83,377.77l16.6.49.34-.51h0a.47.47,0,0,0,.28-.3c.85-1.85.15-4-1-5.7-2.84.26-5.69.56-8.52.91a15.64,15.64,0,0,0-2.27.41c-1.73.5-3.18,1.58-4.89,2.11a3.5,3.5,0,0,1-.46.14Z"/><path class="cls-11" d="M166.93,364.35a207.62,207.62,0,0,1-3.38-22.3l0-.23a51.69,51.69,0,0,1-14.69-.74c-2.5,2.77-5,5.52-7.54,8.28l.14.11c10.3,6,17.16,15.84,22.93,25.7,1.71-.53,3.16-1.61,4.89-2.11a15.64,15.64,0,0,1,2.27-.41c2.83-.35,5.68-.65,8.52-.91-.18-.27-.38-.54-.58-.79a18.89,18.89,0,0,0-12.31-6.64Z"/><path class="cls-7" d="M148.33,268.44a74.27,74.27,0,0,0,4.34-8.1,115.13,115.13,0,0,0,4.6-12.9q10.57-33.87,21.12-67.75a147.35,147.35,0,0,1-49.32-12.85c-5.59,13.12-5.76,27.69-4.29,41.73,1.48,14.19,4.57,28.27,5,42.53h0a21.87,21.87,0,0,0-7.16,6.25c-17.59,21.51-22,49.72-36.14,73.24.73.47,1.48.93,2.23,1.38a118.1,118.1,0,0,0,12.52,6.56c.85.39,1.71.76,2.59,1.13,10.47-22.22,25.31-42.45,39.22-63C144.85,273.93,146.66,271.22,148.33,268.44Z"/><path class="cls-17" d="M148.84,341.08a51.69,51.69,0,0,0,14.69.74c1.07-.09,2.13-.22,3.19-.39q7.13-57.31,14.24-114.64c1.34-10.82,2.69-21.65,4.79-32.37.94-4.78,2-9.52,3.27-14.23-3.54,0-7.09-.2-10.63-.5q-10.53,33.87-21.12,67.75a115.13,115.13,0,0,1-4.6,12.9,74.27,74.27,0,0,1-4.34,8.1c-.06,1.3-.07,2.59-.07,3.88,0,14.54.19,29.11-1.15,43.6-.76,8.21-2,16.52-.49,24.64v0C147.36,340.77,148.1,340.94,148.84,341.08Z"/><path class="cls-7" d="M107.66,10.43a16.37,16.37,0,0,0-.79,6.59c.35,5.65,3,11.41,8.07,14.66,5.79,3.71,13.78,3.54,20.25.94a28.63,28.63,0,0,0,6.68-3.77A36.52,36.52,0,0,0,146,25.14c2.18-2.24,4.15-4.65,6.49-6.76a18.88,18.88,0,0,1,8.29-4.64,11.2,11.2,0,0,1,8,1.06,33.72,33.72,0,0,1,3.49-1.65,10.35,10.35,0,0,0-5.11-9.07,15.84,15.84,0,0,0-11.65-1.7c-2.7.61-5.21,1.82-8,2.17C141.6,5.32,136,1.92,130.12.6a22.73,22.73,0,0,0-13.41.91A15.89,15.89,0,0,0,107.66,10.43Z"/><path class="cls-7" d="M160.48,55.65c-.13.12-.25.24-.37.37a35.67,35.67,0,0,0,10.18-8.17A12.6,12.6,0,0,1,167.06,37a6.11,6.11,0,0,1,1.28-2.88,3.51,3.51,0,0,1,3-1.19,3.65,3.65,0,0,1,2.24,1.37,4.82,4.82,0,0,1,1,3.63c6.43,1.71,13.34,1.29,20,.31a34.44,34.44,0,0,0,4.28-.84A19.77,19.77,0,0,0,202.24,36,9.39,9.39,0,0,0,204,34.91a9.41,9.41,0,0,0,1.17-9.22A19.34,19.34,0,0,0,199,17.8a27.82,27.82,0,0,0-15.37-6.59,25.58,25.58,0,0,0-11.27,1.94,33.85,33.85,0,0,0-6.37,3.41,21.62,21.62,0,0,0-7.53,7.9,18.92,18.92,0,0,0-1.76,8C156.42,40.29,159,47.92,160.48,55.65Z"/><path class="cls-18" d="M170.29,47.85A35.67,35.67,0,0,1,160.11,56l-.43.44a18.89,18.89,0,0,0,5.56,11.86,38.29,38.29,0,0,1,4.84,2,90.15,90.15,0,0,1,9.31,5.25,66,66,0,0,1,1-7.4c.13-.67.26-1.35.42-2a12.19,12.19,0,0,1,1.61-4.29,20.12,20.12,0,0,0,4.42,1.6,2.53,2.53,0,0,0,1.19.07,2.36,2.36,0,0,0,1.08-.79c1.59-1.69,3.14-3.4,4.67-5.13a2.19,2.19,0,0,1,.57-.52A2.66,2.66,0,0,1,195.7,57c2.21.1,4.64-.06,6.33-1.38a1.94,1.94,0,0,0,.85-1.34,2.34,2.34,0,0,0-.88-1.52l-1.79-1.81a2.82,2.82,0,0,1-.78-1.08,2.81,2.81,0,0,1,.53-2.11,42.21,42.21,0,0,0,4.64-13.4,5.66,5.66,0,0,1-.6.6A9.39,9.39,0,0,1,202.24,36a19.77,19.77,0,0,1-3.35,1.32,34.44,34.44,0,0,1-4.28.84c-6.63,1-13.54,1.4-20-.31a4.82,4.82,0,0,0-1-3.63,3.65,3.65,0,0,0-2.24-1.37,3.51,3.51,0,0,0-3,1.19A6.11,6.11,0,0,0,167.06,37,12.6,12.6,0,0,0,170.29,47.85Z"/><path class="cls-16" d="M129,166.81l0,0a147.35,147.35,0,0,0,49.32,12.85c3.53.3,7.09.46,10.63.5h1.66c.63-18.49,1.32-39.81,2.56-59.13.46-3.42,2.13-22.32.3-28.16-1.49-4.8-3.6-9.72-7.58-13.28a27.5,27.5,0,0,0-7.82-4.43,55.79,55.79,0,0,1-8-4c-4.5-2.85-8.25-6.75-9.91-11.53a17.83,17.83,0,0,1-.53-3.16,23,23,0,0,0-2,2.25,62.7,62.7,0,0,0-7.42,10.62,67.27,67.27,0,0,0-7.37,21.3c-2.22,13.12-.76,26.63,3,39.45a6.72,6.72,0,0,1,.43,2.61,6.87,6.87,0,0,1-1.26,2.85A199,199,0,0,0,129,166.81Z"/><path class="cls-11" d="M216.05,98c-6.69-7.1-13.39-14.19-20.58-20.86-4.29-4-9.12-8-15.11-9a66,66,0,0,0-1,7.4c9.64,6.14,18.1,13.88,25.88,22a21.1,21.1,0,0,0,5.64,4.69,456.83,456.83,0,0,0,48.53-.64C245.27,98.74,230.43,100,216.05,98Z"/><polygon class="cls-11" points="193.79 113.01 160.85 88.76 190.68 180.2 193.79 113.01"/><path class="cls-15" d="M185.27,56.87c0,1.3.7,3.2,2.53,3.48a4.48,4.48,0,0,0,2.75-.64,7.85,7.85,0,0,0,2.07-1.65.36.36,0,0,0-.15-.52.49.49,0,0,0-.14-.11l-5.33-3a.35.35,0,0,0-.13,0,.57.57,0,0,0-.8.06A4.29,4.29,0,0,0,185.27,56.87Z"/><path class="cls-7" d="M192.8,46.32a1.71,1.71,0,0,0,1.12,1,1.64,1.64,0,0,0,1.55-.48,4,4,0,0,0,.43-.49c.07,0,1.52-2.39.52-3.31s-2.19-.22-2.9.43a2.43,2.43,0,0,0-.74,1.32A2.61,2.61,0,0,0,192.8,46.32Z"/><path class="cls-7" d="M197.15,41.54l-.09,0h0Z"/><path class="cls-7" d="M194.35,39.35a6.79,6.79,0,0,1,4.5.75,1,1,0,0,1,.41,1.37,1.16,1.16,0,0,1-1.49.37c-.2-.11-.41-.2-.62-.3l-.08,0-.07,0,.06,0h0l-.23-.07-.39-.1-.4-.07c.33.06.05,0,0,0l-.19,0a5.4,5.4,0,0,0-.8,0h-.09a1.19,1.19,0,0,1-.81-.1,1,1,0,0,1-.52-.61A1,1,0,0,1,194.35,39.35Z"/><path class="cls-19" d="M352.75,53.72,369.07,123a75.72,75.72,0,0,0-23-13c-4.06-1.45-8.48-2.54-12.63-1.41-5.52,1.52-9.23,6.5-12.39,11.28s-6.08,9.41-8.88,14.24l-.52-.32-12.69-8c-6-3.78-12.08-7.6-19-9.24s-14.77-.68-19.88,4.19a30.36,30.36,0,0,0-5,6.74c-1.58,2.56-3.14,5.12-4.73,7.69L237.63,80.85Zm-24.94,46A16.5,16.5,0,1,0,308,87.44,16.47,16.47,0,0,0,327.81,99.69Z"/><path class="cls-9" d="M257.41,164.81l44.83-10.56,70.29-16.56L369.07,123,352.75,53.72,237.63,80.85l12.79,54.32ZM358.19,46.28l22.89,97.12L251.16,174,228.27,76.89Z"/><path class="cls-10" d="M250.42,135.17l7,29.64,44.83-10.56-.3-1.27c3.19-6.39,6.58-12.7,10.24-18.84l-.52-.32-12.69-8c-6-3.78-12.08-7.6-19-9.24s-14.77-.68-19.88,4.19a30.36,30.36,0,0,0-5,6.74C253.57,130,252,132.6,250.42,135.17Z"/><path class="cls-3" d="M301.94,153l.3,1.27,70.29-16.56L369.07,123a75.72,75.72,0,0,0-23-13c-4.06-1.45-8.48-2.54-12.63-1.41-5.52,1.52-9.23,6.5-12.39,11.28s-6.08,9.41-8.88,14.24C308.52,140.28,305.13,146.59,301.94,153Z"/><path class="cls-8" d="M320.24,67.58a16.5,16.5,0,1,0,19.83,12.29A16.49,16.49,0,0,0,320.24,67.58Z"/><path class="cls-18" d="M261,102.65q2.2,5.32,4.42,10.64a65.2,65.2,0,0,0,15.67.19,7.55,7.55,0,0,0,3.74-1.12c2-1.48,2.18-4.36,2-6.84s-.54-5.5-2.48-7.28a1.88,1.88,0,0,0-1-.54,2,2,0,0,0-1,.19c-3.4,1.34-6.4,4.23-10.05,4,.44-1.73.88-3.47,1.31-5.2a1.1,1.1,0,0,0,0-.91c-.27-.39-.88-.27-1.32-.08C268.26,97.54,265.25,101.49,261,102.65Z"/><path class="cls-16" d="M215,102.29a19.84,19.84,0,0,1-5.16-4.69c-7.12-8.12-14.86-15.86-23.68-22a80.84,80.84,0,0,0-8.52-5.25,33.48,33.48,0,0,0-4.43-2,14.47,14.47,0,0,0-7.14-.9,7.29,7.29,0,0,0-3.41,1.4,5.39,5.39,0,0,0-1,1.07A7.5,7.5,0,0,0,160.45,75,14.71,14.71,0,0,0,163,81.29c4,6.26,10,11,15.81,15.65L191.46,107c2,1.6,4,3.2,6.11,4.72.6.44,1.2.86,1.8,1.28,3.36,2.36,6.87,4.51,10.44,6.53l.1-.18a18.2,18.2,0,0,0,5.7.63c16.88-.13,33.44-4.8,50.31-5.45-.17-.42-.35-.83-.52-1.25Q263.2,108,261,102.65l-.45-1.07-1.09.07A382.63,382.63,0,0,1,215,102.29Z"/></g></g></svg>