<svg xmlns="http://www.w3.org/2000/svg" viewBox="0 0 584.09 378.9"><defs><style>.cls-1{fill:#adf2ed;}.cls-2{fill:#e8e8e8;}.cls-3{fill:#38b2ac;}.cls-4{fill:#bbfff5;}.cls-5{fill:#fffefd;}.cls-6{fill:#e4f4f4;}.cls-7{fill:#272742;}.cls-8{fill:#ffc533;}.cls-9{fill:#f6fafd;}.cls-10{fill:#56d8cf;}.cls-11{fill:#ff5331;}.cls-12{fill:#ffac33;}.cls-13{fill:#cbf4f4;}.cls-14{fill:#ffbe55;}.cls-15{fill:#fff;}.cls-16{fill:#f73;}.cls-17{fill:#3b3b59;}.cls-18{fill:#f7b05c;}.cls-19{fill:#c7fffd;}</style></defs><title>Asset 9</title><g id="Layer_2" data-name="Layer 2"><g id="OBJECTS"><path class="cls-1" d="M571.25,327.93c-.2,9.8-1,19.57-1.92,29.32a.82.82,0,0,0,.1.53q-110,0-220,.08l-219.79.07-123,0c-5.72-13.88-3.37-30.7,5.42-42.61,9.6-13,26.79-15.2,35.94-28.75,8.49-12.54,9.71-28.85,11.18-43.69,1.45-14.67,4-31.65,14.69-42.32,12.68-12.69,31.19-8.6,47-10,14.94-1.36,27.11-9.27,35.92-21.88,20.84-29.89,14.53-69.54,27.71-102.51,6.21-15.54,16.83-28.59,32.23-34.41,15-5.67,31.59-4.63,46.91-1.11,17,3.89,32.89,11.33,49.25,17.2a160,160,0,0,0,26.47,7.38,111.29,111.29,0,0,0,26.92.91c9-.63,18-1.27,26.85.74a62.1,62.1,0,0,1,20.44,8.76,67.68,67.68,0,0,1,27.58,36.75c8.71,28.9-.19,64.66,19.61,89.46,18.72,23.45,51.79,22.91,74.54,40C564.11,253.46,572,292.94,571.25,327.93Z"/><path class="cls-2" d="M0,357.25l584.09-.74S517.45,378.9,279.62,378.9,0,357.25,0,357.25Z"/><path class="cls-3" d="M573.83,356.76l0,.18H318.51c2-6.7,7.56-12.12,13.9-15.33,7.14-3.61,15.21-4.83,23.13-6a63.38,63.38,0,0,1-13.82-26.23c-1.89-7.39-1.74-16.62,4.54-20.94,4.16-2.87,9.73-2.56,14.65-1.43a53.65,53.65,0,0,1,24,12.52,108.2,108.2,0,0,1,1.92-40c1.9-7.9,5.79-16.69,13.67-18.72,7.12-1.86,14.35,2.77,19.41,8.11a59.37,59.37,0,0,1,14.88,28.31c8-14.15,16.25-28.68,29-38.72,6.74-5.29,16.14-9.21,23.74-5.23,5.39,2.82,8.33,9,8.88,15.07s-.95,12.09-2.43,18q-3,11.86-5.93,23.7A87.24,87.24,0,0,1,519.73,278c4.54-.77,9.49-1.1,13.5,1.16,5.55,3.14,7.53,10.5,6.29,16.75s-5,11.68-8.61,16.9l-10.32,14.74a42.93,42.93,0,0,1,53.24,29.21Z"/><path class="cls-4" d="M406.56,281v75.27a.76.76,0,0,0,1.51,0V281A.76.76,0,0,0,406.56,281Z"/><path class="cls-4" d="M480.27,320.39q-6.93,8.7-13.2,17.9v-23.1a.82.82,0,0,0,.08-.4q5.19-8.37,11.05-16.27c.58-.78-.73-1.53-1.31-.76q-5.17,7-9.82,14.34V277a.76.76,0,0,0-1.51,0v36.69c-5.36-2.58-11.14-4.17-16.37-7-.85-.46-1.61.84-.76,1.31,5.48,3,11.57,4.6,17.13,7.4v22.84c-4.79-2.72-9.51-5.55-14.13-8.55-.82-.52-1.57.78-.76,1.31q7.31,4.72,14.89,9v15.39a.76.76,0,0,0,1.51,0V340.9l.1-.1q6.69-9.94,14.16-19.34C481.93,320.71,480.87,319.63,480.27,320.39Z"/><path class="cls-4" d="M420.23,289.85a198.63,198.63,0,0,0-13.54,18.68c-.52.82.79,1.57,1.31.75a196,196,0,0,1,13.29-18.36C421.9,290.18,420.84,289.1,420.23,289.85Z"/><path class="cls-4" d="M421.69,325.69a208.48,208.48,0,0,0-14.85,18.19c-.58.79.74,1.54,1.3.76a206.69,206.69,0,0,1,14.61-17.88C423.4,326.05,422.34,325,421.69,325.69Z"/><path class="cls-4" d="M407.44,326.78c-1.55-2.47-3.81-4.53-5.79-6.65s-4.21-4.52-6.31-6.79c-.67-.71-1.74.35-1.08,1.06l6.14,6.6,3,3.25a22.84,22.84,0,0,1,2.71,3.27C406.65,328.35,408,327.6,407.44,326.78Z"/><path class="cls-4" d="M407.8,294.17q-5.49-6.19-11.54-11.85c-.71-.66-1.79.4-1.08,1.06q6,5.65,11.54,11.85C407.37,296,408.44,294.9,407.8,294.17Z"/><path class="cls-3" d="M243.11,356.91H3.23c-1.15-7,5.46-13.25,12.07-16.25a49.35,49.35,0,0,1,33-2.71c-6.14-6.77-12-14.18-14.59-22.94S32.41,295.8,39,289.45c6-5.75,15.26-7.09,23.25-4.92s14.87,7.39,20.64,13.34a60.3,60.3,0,0,1-.16-43.53c2.49-6.43,7.27-13.17,14.17-13.43,3.47-.12,6.79,1.48,9.62,3.5C114,249.74,119,258,122,266.71s4.13,17.91,5.25,27a48.8,48.8,0,0,1,14.29-16.87c6.09-4.51,14.5-7.55,21.15-3.91s8.57,12,9,19.46A94.42,94.42,0,0,1,169,321c7.83-6,17.11-10.33,26.91-11.44s20.13,1.18,28,7.17C236,325.91,240.42,341.91,243.11,356.91Z"/><path class="cls-4" d="M100.86,332.57V312.88a.64.64,0,0,0,.27-.27,238.07,238.07,0,0,1,14.11-21.31c.58-.78-.73-1.53-1.3-.76q-7,9.46-13.08,19.61V263.83a.76.76,0,0,0-1.51,0v67q-8.14-8.4-15.82-17.26c-.64-.73-1.71.33-1.08,1.06q8.16,9.47,16.9,18.4V355a.76.76,0,0,0,1.51,0v-5.31a129.23,129.23,0,0,1,12.65-15.46c.67-.7-.39-1.78-1.06-1.07a131.43,131.43,0,0,0-11.59,14V332.9A.62.62,0,0,0,100.86,332.57Z"/><path class="cls-4" d="M159.18,310.08a178.53,178.53,0,0,0-11.2,16c.1-4.26.19-8.52.32-12.78q.18-5.91.4-11.82c0-1-1.48-1-1.51,0q-.72,19.45-1,38.93a113,113,0,0,1-14-9.19c-.76-.59-1.51.72-.75,1.31a112.34,112.34,0,0,0,14.73,9.59l0,1.23c0,3.94-.1,7.89-.14,11.83a.76.76,0,0,0,1.51,0q.06-6.66.18-13.34a.78.78,0,0,0,0-.34q.1-6.35.25-12.68a.81.81,0,0,0,.31-.28,173.71,173.71,0,0,1,12-17.37C160.83,310.4,159.78,309.32,159.18,310.08Z"/><path class="cls-4" d="M70.38,332.35c-3.25,3.88-6.31,7.92-9.2,12.08.27-5.3.5-10.6.66-15.9,0-1-1.48-1-1.51,0q-.42,13.95-1.35,27.87c-.07,1,1.44,1,1.5,0,.22-3.23.39-6.47.57-9.71a.77.77,0,0,0,.59-.33q4.58-6.71,9.8-12.94C72.06,332.68,71,331.6,70.38,332.35Z"/><path class="cls-5" d="M125.25,356.91h309s41.63-120.25-56.52-113.38c0,0-8.21-82.5-93.18-82.5s-97,89.76-97,89.76S85.58,221.76,125.25,356.91Z"/><path class="cls-6" d="M434.21,356.91h-210c98.2-3,63.48-72.38,63.48-72.38,104.89-20.38,50.1-108.76,50.1-108.76,35.52,23.72,39.9,67.76,39.9,67.76C475.84,236.66,434.21,356.91,434.21,356.91Z"/><path class="cls-7" d="M347.86,203.72l-8.63,5.78a44.75,44.75,0,0,0-4.26-5.09,63.57,63.57,0,0,0-6-5.57l-.36-.3a67.4,67.4,0,0,0-30.85-14l-.34-.05a72.24,72.24,0,0,0-11.94-1H285q-3.93,0-7.51.26A90.53,90.53,0,0,0,267,185c-.95.17-1.89.36-2.8.57-1.54.33-3,.71-4.47,1.11a72.06,72.06,0,0,0-9.42,3.36,63.33,63.33,0,0,0-7.1,3.65l-1,.6a60.22,60.22,0,0,0-5.38,3.8,52.1,52.1,0,0,0-4.15,3.7c-.27.26-.53.52-.77.78a32.22,32.22,0,0,0-5,6.45l-9.18-4.86a41.87,41.87,0,0,1,7-9.05c1.18-1.21,2.52-2.49,4.05-3.79a63.65,63.65,0,0,1,6.69-5c1-.66,2-1.31,3.14-1.95s2.38-1.35,3.65-2a79.69,79.69,0,0,1,17.09-6.32c.44-.11.89-.22,1.36-.32,1.15-.27,2.33-.53,3.53-.76a98.68,98.68,0,0,1,10-1.41c1.78-.17,3.64-.29,5.53-.37l1.55-.06c1.22,0,2.46-.06,3.75-.06h1.34c1.53,0,3,.09,4.47.19,1,.07,2,.15,3,.25l.55,0a77.92,77.92,0,0,1,38,14.75c1.35,1,2.62,2,3.79,3a74.39,74.39,0,0,1,6,5.57A55.1,55.1,0,0,1,347.86,203.72Z"/><path class="cls-6" d="M175.91,263.05a19.59,19.59,0,0,0-8.43-1.13,43.86,43.86,0,0,0-22.34,6.91A42.84,42.84,0,0,0,127,294.14a44,44,0,0,0-.79,17.78,2.52,2.52,0,0,0,3.07,1.76,2.55,2.55,0,0,0,1.76-3.06,38.59,38.59,0,0,1,5.63-26.38A38.45,38.45,0,0,1,165.73,267c1.31-.09,2.63-.12,4-.09a10.63,10.63,0,0,1,3.73.46,2.56,2.56,0,0,0,3.41-.92A2.51,2.51,0,0,0,175.91,263.05Z"/><path class="cls-6" d="M134.48,342.47a60.44,60.44,0,0,1-2.75-16.93,2.56,2.56,0,0,0-2.52-2.49,2.53,2.53,0,0,0-2.48,2.52,65.38,65.38,0,0,0,2.92,18.2,2.56,2.56,0,0,0,3.07,1.77A2.53,2.53,0,0,0,134.48,342.47Z"/><path class="cls-6" d="M213.25,217A65.21,65.21,0,0,0,197,252.09a2.57,2.57,0,0,0,1.79,3,2.51,2.51,0,0,0,3.05-1.79,60.55,60.55,0,0,1,14.95-32.78C218.91,218.19,215.41,214.62,213.25,217Z"/><path class="cls-8" d="M269.64,89.5l-48.95,51.64a75.89,75.89,0,0,1,26.38.37c4.24.8,8.61,2.08,11.62,5.15,4,4.09,4.71,10.26,5,16q.36,6.17.47,12.33c0,1.48,0,3,0,4.44l.6,0c5-.17,10-.37,15-.55,7.09-.25,14.28-.49,21,1.55a23.91,23.91,0,0,1,12.93,9.06,67.6,67.6,0,0,1,14.81,9.09l.36.3,7.15-7.54,19.35-20.42Zm-2.2,29a16.49,16.49,0,1,1,.62,23.29A16.49,16.49,0,0,1,267.44,118.48Z"/><path class="cls-9" d="M273.77,85.15l-5.08-4.82L200,152.74l35.4,33.57,7.8,7.4a63.33,63.33,0,0,1,7.1-3.65l-8.11-7.69L210.29,152.1l10.4-11L269.64,89.5l85.83,81.38L336.12,191.3,329,198.84a63.57,63.57,0,0,1,6,5.57l7.15-7.54,23.43-24.71Z"/><path class="cls-10" d="M313.8,189.45a68.24,68.24,0,0,0-16-4.9l-.34-.05a72.24,72.24,0,0,0-11.94-1H285q-3.93,0-7.51.26A90.53,90.53,0,0,0,267,185c-.95.17-1.89.36-2.8.57q0-3.09,0-6.18l.6,0c5-.17,10-.37,15-.55,7.09-.25,14.28-.49,21,1.55A23.91,23.91,0,0,1,313.8,189.45Z"/><path class="cls-3" d="M264.24,179.41q0,3.09,0,6.18c-1.54.33-3,.71-4.47,1.11a72.06,72.06,0,0,0-9.42,3.36l-8.11-7.69L210.29,152.1l10.4-11a75.89,75.89,0,0,1,26.38.37c4.24.8,8.61,2.08,11.62,5.15,4,4.09,4.71,10.26,5,16q.36,6.17.47,12.33C264.23,176.45,264.24,177.93,264.24,179.41Z"/><path class="cls-11" d="M290.75,117.84a16.49,16.49,0,1,1-23.31.64A16.48,16.48,0,0,1,290.75,117.84Z"/><polygon class="cls-5" points="465.78 211.72 470.06 216.01 466.57 219.5 462.28 215.22 458.01 219.5 454.51 216.01 458.79 211.72 454.48 207.41 457.97 203.92 462.28 208.23 466.57 203.95 470.06 207.45 465.78 211.72"/><path class="cls-5" d="M520.48,224.32l23.4,19.14-19.13,23.41-23.41-19.14Zm21.09,19.37-20.86-17.05L503.66,247.5l20.85,17.05Zm-8.05.81-12-9.81-9.81,12,12,9.81Z"/><rect class="cls-5" x="513.21" y="236.2" width="18.8" height="18.8" transform="translate(1.64 494.65) rotate(-50.72)"/><path class="cls-12" d="M548.53,185.06a16.27,16.27,0,1,1,16.26-16.27A16.29,16.29,0,0,1,548.53,185.06Zm-10.2-16.27a10.19,10.19,0,1,0,10.2-10.19A10.2,10.2,0,0,0,538.33,168.79Z"/><path class="cls-12" d="M493.47,196.86A9.56,9.56,0,1,1,503,187.3,9.57,9.57,0,0,1,493.47,196.86Zm-6-9.56a6,6,0,1,0,6-6A6,6,0,0,0,487.48,187.3Z"/><rect class="cls-13" x="558.13" y="202.04" width="13.32" height="13.32" transform="translate(910.99 701.33) rotate(-145.38)"/><circle class="cls-13" cx="509.01" cy="150.9" r="8.12"/><path class="cls-14" d="M43.93,175.14l-8.24,8.24,8.17,8.19-6.67,6.67L29,190.06l-8.19,8.18-6.67-6.67,8.18-8.19-8.18-8.17,6.67-6.67L29,176.71l8.24-8.24Zm-23.1-4.38-4.45,4.45,8.19,8.17-8.19,8.19L20.83,196,29,187.83,37.19,196l4.45-4.45-8.17-8.19,8.24-8.24-4.45-4.45L29,178.93Z"/><path class="cls-5" d="M159.42,224,137.1,242.26l-18.26-22.32,22.33-18.26Zm-22.1,16,19.89-16.26L141,203.89l-19.9,16.27Zm14.43-16.81-13.88,11.35-11.35-13.88,13.88-11.35Zm-13.66,9.14L149.54,223l-9.36-11.45-11.45,9.36Z"/><path class="cls-11" d="M51.3,190.14a12.95,12.95,0,1,1,12.94,12.94A13,13,0,0,1,51.3,190.14ZM64.24,182a8.11,8.11,0,1,0,8.11,8.11A8.12,8.12,0,0,0,64.24,182Z"/><path class="cls-3" d="M5,261a9.12,9.12,0,1,1,9.12,9.11A9.14,9.14,0,0,1,5,261Zm9.12-5.71A5.71,5.71,0,1,0,19.87,261,5.71,5.71,0,0,0,14.16,255.28Z"/><rect class="cls-14" x="29.12" y="216.7" width="12.7" height="12.7" transform="translate(-120.45 59.65) rotate(-34.62)"/><circle class="cls-14" cx="94.59" cy="226.06" r="4.08"/><circle class="cls-11" cx="42.48" cy="258.97" r="5.77"/><circle class="cls-11" cx="532.25" cy="132.6" r="5.55"/><circle class="cls-10" cx="464.78" cy="148.65" r="5.3"/><path class="cls-15" d="M499.91,378.82l-25.16,0a14,14,0,0,1,2-6.64,6.55,6.55,0,0,1,4-.91,40.36,40.36,0,0,1,15.11,3.14q6.12-16.38,13.3-32.4a5.44,5.44,0,0,1,2.17,6.94,52.49,52.49,0,0,1-2.14,6.18Q504.55,367,499.91,378.82Z"/><path class="cls-16" d="M487.32,364.87c-.29-8.93-.65-18.1-4.45-26.34A118.1,118.1,0,0,0,495.39,332c4.06,3.23,8.27,6.33,12.59,9.27.39.26.79.53,1.16.81q-7.17,16-13.3,32.4a40.36,40.36,0,0,0-15.11-3.14,6.55,6.55,0,0,0-4,.91,14.14,14.14,0,0,1,1.74-2.37A16.63,16.63,0,0,1,487.32,364.87Z"/><path class="cls-15" d="M442.65,349.47l.14-.11.35.39a4.12,4.12,0,0,1,1,1.52c.37,1.25-.57,2.48-1.48,3.47-3.35,3.65-7,7-10.23,10.76a35.21,35.21,0,0,0-7.37,12.13l-4.82.14-.08-2.46a3.5,3.5,0,0,1-.46-.14C425.49,365.31,432.35,355.5,442.65,349.47Z"/><path class="cls-15" d="M420.26,377.77l-16.6.49-.34-.51h0a.47.47,0,0,1-.28-.3c-.85-1.85-.15-4,1-5.7,2.84.26,5.69.56,8.52.91a15.64,15.64,0,0,1,2.27.41c1.73.5,3.18,1.58,4.89,2.11a3.5,3.5,0,0,0,.46.14Z"/><path class="cls-11" d="M417.16,364.35a207.62,207.62,0,0,0,3.38-22.3l0-.23a51.69,51.69,0,0,0,14.69-.74c2.5,2.77,5,5.52,7.54,8.28l-.14.11c-10.3,6-17.16,15.84-22.93,25.7-1.71-.53-3.16-1.61-4.89-2.11a15.64,15.64,0,0,0-2.27-.41c-2.83-.35-5.68-.65-8.52-.91.18-.27.38-.54.58-.79a18.89,18.89,0,0,1,12.31-6.64Z"/><path class="cls-7" d="M435.76,268.44a74.27,74.27,0,0,1-4.34-8.1,115.13,115.13,0,0,1-4.6-12.9q-10.57-33.87-21.13-67.75A147.34,147.34,0,0,0,455,166.84c5.59,13.12,5.76,27.69,4.29,41.73-1.48,14.19-4.57,28.27-5,42.53h.05a21.87,21.87,0,0,1,7.16,6.25c17.59,21.51,22,49.72,36.14,73.24-.73.47-1.48.93-2.23,1.38a118.1,118.1,0,0,1-12.52,6.56c-.85.39-1.71.76-2.59,1.13-10.47-22.22-25.31-42.45-39.22-63C439.24,273.93,437.43,271.22,435.76,268.44Z"/><path class="cls-17" d="M435.25,341.08a51.69,51.69,0,0,1-14.69.74c-1.07-.09-2.13-.22-3.19-.39q-7.12-57.31-14.24-114.64c-1.34-10.82-2.69-21.65-4.79-32.37-.94-4.78-2-9.52-3.27-14.23,3.54,0,7.09-.2,10.62-.5q10.55,33.87,21.13,67.75a115.13,115.13,0,0,0,4.6,12.9,74.27,74.27,0,0,0,4.34,8.1c.05,1.3.07,2.59.07,3.88,0,14.54-.19,29.11,1.15,43.6.76,8.21,2,16.52.49,24.64v0C436.73,340.77,436,340.94,435.25,341.08Z"/><path class="cls-7" d="M476.43,10.43a16.37,16.37,0,0,1,.79,6.59c-.35,5.65-3,11.41-8.07,14.66-5.79,3.71-13.78,3.54-20.25.94a28.63,28.63,0,0,1-6.68-3.77,36.52,36.52,0,0,1-4.13-3.71c-2.18-2.24-4.15-4.65-6.49-6.76a18.88,18.88,0,0,0-8.29-4.64,11.2,11.2,0,0,0-8,1.06,33.72,33.72,0,0,0-3.49-1.65,10.35,10.35,0,0,1,5.11-9.07,15.84,15.84,0,0,1,11.65-1.7c2.7.61,5.21,1.82,8,2.17,6,.77,11.59-2.63,17.47-3.95a22.73,22.73,0,0,1,13.41.91A15.89,15.89,0,0,1,476.43,10.43Z"/><path class="cls-7" d="M423.61,55.65,424,56a35.67,35.67,0,0,1-10.18-8.17A12.6,12.6,0,0,0,417,37a6.11,6.11,0,0,0-1.28-2.88,3.51,3.51,0,0,0-3-1.19,3.65,3.65,0,0,0-2.24,1.37,4.82,4.82,0,0,0-1,3.63c-6.43,1.71-13.34,1.29-20,.31a34.44,34.44,0,0,1-4.28-.84A19.77,19.77,0,0,1,381.85,36a9.39,9.39,0,0,1-1.76-1.12,9.41,9.41,0,0,1-1.17-9.22,19.34,19.34,0,0,1,6.22-7.89,27.82,27.82,0,0,1,15.37-6.59,25.58,25.58,0,0,1,11.27,1.94,33.72,33.72,0,0,1,3.49,1.65c1,.54,2,1.13,2.88,1.76a21.62,21.62,0,0,1,7.53,7.9,18.92,18.92,0,0,1,1.76,8C427.67,40.29,425.05,47.92,423.61,55.65Z"/><path class="cls-18" d="M413.8,47.85A35.67,35.67,0,0,0,424,56l.43.44a18.89,18.89,0,0,1-5.56,11.86,38.29,38.29,0,0,0-4.84,2,90.15,90.15,0,0,0-9.31,5.25,66,66,0,0,0-1-7.4c-.13-.67-.26-1.35-.42-2a12,12,0,0,0-1.62-4.29,19.85,19.85,0,0,1-4.41,1.6,2.53,2.53,0,0,1-1.19.07,2.36,2.36,0,0,1-1.08-.79c-1.59-1.69-3.14-3.4-4.67-5.13a2.19,2.19,0,0,0-.57-.52,2.66,2.66,0,0,0-1.38-.17c-2.21.1-4.64-.06-6.33-1.38a1.94,1.94,0,0,1-.85-1.34,2.34,2.34,0,0,1,.88-1.52l1.79-1.81a2.82,2.82,0,0,0,.78-1.08,2.81,2.81,0,0,0-.53-2.11,42.21,42.21,0,0,1-4.64-13.4,5.66,5.66,0,0,0,.6.6A9.39,9.39,0,0,0,381.85,36a19.77,19.77,0,0,0,3.35,1.32,34.44,34.44,0,0,0,4.28.84c6.63,1,13.54,1.4,20-.31a4.82,4.82,0,0,1,1-3.63,3.65,3.65,0,0,1,2.24-1.37,3.51,3.51,0,0,1,3,1.19A6.11,6.11,0,0,1,417,37,12.6,12.6,0,0,1,413.8,47.85Z"/><path class="cls-16" d="M455.07,166.81l-.05,0a147.34,147.34,0,0,1-49.33,12.85c-3.53.3-7.08.46-10.62.5h-1.66c-.63-18.49-1.32-39.81-2.56-59.13-.46-3.42-2.13-22.32-.3-28.16,1.49-4.8,3.6-9.72,7.58-13.28A27.5,27.5,0,0,1,406,75.2a55.79,55.79,0,0,0,8-4c4.5-2.85,8.25-6.75,9.91-11.53a17.83,17.83,0,0,0,.53-3.16,23,23,0,0,1,2,2.25,62.7,62.7,0,0,1,7.42,10.62,67.27,67.27,0,0,1,7.37,21.3c2.22,13.12.76,26.63-3,39.45a6.72,6.72,0,0,0-.43,2.61,6.87,6.87,0,0,0,1.26,2.85A199,199,0,0,1,455.07,166.81Z"/><path class="cls-11" d="M368,98c6.69-7.1,13.39-14.19,20.58-20.86,4.29-4,9.12-8,15.11-9a66,66,0,0,1,1,7.4c-9.64,6.14-18.1,13.88-25.88,22a21.1,21.1,0,0,1-5.64,4.69,456.83,456.83,0,0,1-48.53-.64C338.82,98.74,353.66,100,368,98Z"/><polygon class="cls-11" points="390.3 113.01 423.24 88.76 393.41 180.2 390.3 113.01"/><path class="cls-15" d="M398.82,56.87c0,1.3-.7,3.2-2.53,3.48a4.48,4.48,0,0,1-2.75-.64,7.85,7.85,0,0,1-2.07-1.65.36.36,0,0,1,.15-.52.49.49,0,0,1,.14-.11l5.33-3a.35.35,0,0,1,.13,0,.57.57,0,0,1,.8.06A4.29,4.29,0,0,1,398.82,56.87Z"/><path class="cls-7" d="M391.29,46.32a1.71,1.71,0,0,1-1.13,1,1.63,1.63,0,0,1-1.54-.48,4,4,0,0,1-.43-.49c-.07,0-1.52-2.39-.52-3.31s2.19-.22,2.9.43a2.43,2.43,0,0,1,.74,1.32A2.61,2.61,0,0,1,391.29,46.32Z"/><path class="cls-7" d="M386.94,41.54l.09,0h0Z"/><path class="cls-7" d="M389.74,39.35a6.79,6.79,0,0,0-4.5.75,1,1,0,0,0-.41,1.37,1.16,1.16,0,0,0,1.49.37c.2-.11.41-.2.62-.3l.08,0,.07,0-.06,0h0l.23-.07.39-.1.4-.07c-.33.06-.05,0,0,0l.19,0a5.4,5.4,0,0,1,.8,0h.09a1.19,1.19,0,0,0,.81-.1,1,1,0,0,0,.52-.61A1,1,0,0,0,389.74,39.35Z"/><path class="cls-19" d="M346.46,80.85l-12.79,54.32c-1.59-2.57-3.15-5.13-4.73-7.69a30.36,30.36,0,0,0-5-6.74c-5.11-4.87-13-5.82-19.88-4.19s-13,5.46-18.95,9.24l-12.69,8-.52.32c-2.8-4.83-5.78-9.57-8.88-14.24s-6.87-9.76-12.39-11.28c-4.15-1.13-8.57,0-12.63,1.41a75.72,75.72,0,0,0-23,13l16.32-69.26Zm-70.33,6.59a16.5,16.5,0,1,0-19.85,12.25A16.49,16.49,0,0,0,276.13,87.44Z"/><path class="cls-9" d="M333.67,135.17l12.79-54.32L231.34,53.72,215,123l-3.46,14.71,70.29,16.56,44.83,10.56Zm22.15-58.28L332.93,174,203,143.4,225.9,46.28Z"/><path class="cls-10" d="M333.67,135.17l-7,29.64-44.83-10.56.3-1.27c-3.19-6.39-6.58-12.7-10.24-18.84l.52-.32,12.69-8c6-3.78,12.08-7.6,18.95-9.24s14.77-.68,19.88,4.19a30.36,30.36,0,0,1,5,6.74C330.52,130,332.08,132.6,333.67,135.17Z"/><path class="cls-3" d="M282.15,153l-.3,1.27-70.29-16.56L215,123a75.72,75.72,0,0,1,23-13c4.06-1.45,8.48-2.54,12.63-1.41,5.52,1.52,9.23,6.5,12.39,11.28s6.08,9.41,8.88,14.24C275.57,140.28,279,146.59,282.15,153Z"/><path class="cls-8" d="M263.85,67.58A16.5,16.5,0,1,1,244,79.87,16.49,16.49,0,0,1,263.85,67.58Z"/><path class="cls-18" d="M323.11,102.65q-2.21,5.32-4.42,10.64a65.2,65.2,0,0,1-15.67.19,7.55,7.55,0,0,1-3.74-1.12c-2-1.48-2.18-4.36-2-6.84s.54-5.5,2.48-7.28a1.88,1.88,0,0,1,1-.54,2,2,0,0,1,1,.19c3.4,1.34,6.4,4.23,10,4-.44-1.73-.88-3.47-1.31-5.2a1.1,1.1,0,0,1,0-.91c.27-.39.88-.27,1.32-.08C315.83,97.54,318.84,101.49,323.11,102.65Z"/><path class="cls-16" d="M369.06,102.29a19.84,19.84,0,0,0,5.16-4.69c7.12-8.12,14.86-15.86,23.68-22a80.84,80.84,0,0,1,8.52-5.25,33.48,33.48,0,0,1,4.43-2,14.47,14.47,0,0,1,7.14-.9,7.29,7.29,0,0,1,3.41,1.4,5.39,5.39,0,0,1,1,1.07A7.5,7.5,0,0,1,423.64,75a14.71,14.71,0,0,1-2.55,6.29c-4,6.26-10,11-15.81,15.65L392.63,107c-2,1.6-4,3.2-6.11,4.72-.6.44-1.2.86-1.8,1.28-3.36,2.36-6.87,4.51-10.44,6.53l-.1-.18a18.2,18.2,0,0,1-5.7.63c-16.88-.13-33.44-4.8-50.31-5.45.17-.42.35-.83.52-1.25q2.21-5.33,4.42-10.64l.45-1.07,1.09.07A382.63,382.63,0,0,0,369.06,102.29Z"/></g></g></svg>