<svg id="Layer_1" enable-background="new 0 0 256 256" height="512" viewBox="0 0 256 256" width="512" xmlns="http://www.w3.org/2000/svg"><g><g><path d="m40.827 43.467c.131-3.195 2.76-5.718 5.958-5.718h55.101 16.697 55.101c3.198 0 5.827 2.523 5.958 5.718l6.268 152.656c.139 3.386-2.569 6.208-5.958 6.208h-61.369-16.697-61.369c-3.389 0-6.097-2.821-5.958-6.208z" fill="#a4c9ff"/></g><g><path d="m179.952 204.331h-139.435c-2.189 0-4.229-.87-5.745-2.449s-2.301-3.653-2.211-5.84l6.269-152.656c.176-4.282 3.67-7.636 7.957-7.636h126.897c4.286 0 7.781 3.354 7.957 7.636l6.269 152.656c.089 2.188-.696 4.262-2.212 5.841s-3.557 2.448-5.746 2.448zm-133.166-164.582c-2.133 0-3.873 1.669-3.959 3.8l-6.269 152.656c-.045 1.088.346 2.121 1.1 2.907s1.77 1.219 2.859 1.219h139.435c1.089 0 2.105-.433 2.859-1.219s1.146-1.818 1.101-2.907l-6.269-152.656c-.087-2.131-1.827-3.8-3.96-3.8zm-5.958 3.718h.01z" fill="#3762cc"/></g><g><path d="m78.848 67.081c2.643 0 4.786-2.143 4.786-4.786v-39.215c0-3.037 2.47-5.509 5.508-5.509h42.186c3.038 0 5.508 2.471 5.508 5.509v39.215c0 2.643 2.143 4.786 4.786 4.786s4.786-2.143 4.786-4.786v-39.215c0-8.315-6.765-15.08-15.08-15.08h-42.186c-8.315 0-15.08 6.765-15.08 15.08v39.215c0 2.643 2.143 4.786 4.786 4.786z" fill="#e0ebfc"/></g><g><path d="m141.621 69.081c-3.742 0-6.786-3.044-6.786-6.786v-39.215c0-1.935-1.574-3.508-3.508-3.508h-42.185c-1.935 0-3.508 1.574-3.508 3.508v39.215c0 3.742-3.044 6.786-6.786 6.786s-6.786-3.044-6.786-6.786v-39.215c0-9.418 7.662-17.08 17.08-17.08h42.186c9.418 0 17.08 7.662 17.08 17.08v39.215c-.001 3.742-3.045 6.786-6.787 6.786zm-52.479-53.509h42.186c4.14 0 7.508 3.368 7.508 7.508v39.215c0 1.536 1.25 2.786 2.786 2.786s2.786-1.25 2.786-2.786v-39.215c0-7.212-5.868-13.08-13.08-13.08h-42.186c-7.212 0-13.08 5.868-13.08 13.08v39.215c0 1.536 1.25 2.786 2.786 2.786s2.786-1.25 2.786-2.786v-39.215c-.001-4.14 3.367-7.508 7.508-7.508z" fill="#3762cc"/></g><g><path d="m12.455 121.289c.103-2.247 1.955-4.016 4.205-4.016h39.433 11.928 39.433c2.25 0 4.102 1.769 4.205 4.016l4.441 96.639c.11 2.398-1.804 4.403-4.205 4.403h-43.873-11.929-43.874c-2.401 0-4.315-2.005-4.205-4.403z" fill="#a4c9ff"/></g><g><path d="m111.896 224.331h-99.677c-1.713 0-3.308-.682-4.491-1.921-1.183-1.238-1.791-2.863-1.712-4.574l4.441-96.639c.152-3.322 2.877-5.924 6.203-5.924h90.794c3.326 0 6.051 2.603 6.203 5.924l4.441 96.639c.079 1.711-.529 3.335-1.712 4.574-1.182 1.238-2.777 1.921-4.49 1.921zm-95.236-105.059c-1.184 0-2.153.926-2.207 2.108l-4.441 96.639c-.028.609.188 1.187.609 1.627.421.441.989.684 1.598.684h99.677c.609 0 1.177-.243 1.598-.684.421-.44.637-1.019.609-1.627l-4.441-96.639c-.054-1.182-1.023-2.108-2.207-2.108zm-4.205 2.017h.01z" fill="#3762cc"/></g><g><path d="m39.634 136.713c1.888 0 3.419-1.531 3.419-3.419v-28.016c0-2.17 1.765-3.935 3.935-3.935h30.138c2.17 0 3.935 1.765 3.935 3.935v28.016c0 1.888 1.531 3.419 3.419 3.419s3.419-1.531 3.419-3.419v-28.016c0-5.941-4.833-10.774-10.773-10.774h-30.138c-5.94 0-10.773 4.833-10.773 10.774v28.016c0 1.888 1.531 3.419 3.419 3.419z" fill="#e0ebfc"/></g><g><path d="m84.481 138.713c-2.988 0-5.419-2.431-5.419-5.419v-28.016c0-1.067-.868-1.936-1.935-1.936h-30.139c-1.067 0-1.935.868-1.935 1.936v28.016c0 2.988-2.431 5.419-5.419 5.419s-5.419-2.431-5.419-5.419v-28.016c0-7.043 5.73-12.773 12.773-12.773h30.138c7.043 0 12.773 5.73 12.773 12.773v28.016c.001 2.988-2.43 5.419-5.418 5.419zm-37.493-39.37h30.138c3.272 0 5.935 2.663 5.935 5.936v28.016c0 .783.637 1.419 1.419 1.419s1.419-.637 1.419-1.419v-28.016c0-4.838-3.936-8.773-8.773-8.773h-30.138c-4.838 0-8.773 3.936-8.773 8.773v28.016c0 .783.637 1.419 1.419 1.419s1.419-.637 1.419-1.419v-28.016c0-3.274 2.663-5.936 5.935-5.936z" fill="#3762cc"/></g><g><circle cx="62.057" cy="174.171" fill="#eaa97d" r="27.678"/></g><g><circle cx="62.057" cy="174.171" fill="#ffea92" r="20.697"/></g><g><path d="m63.113 157.244v1.862c1.23.127 2.285.379 3.164.759.88.379 1.647.954 2.302 1.724.517.586.916 1.19 1.199 1.811.281.621.422 1.19.422 1.707 0 .575-.21 1.072-.629 1.492-.42.42-.929.629-1.526.629-1.127 0-1.857-.609-2.19-1.828-.379-1.437-1.293-2.391-2.742-2.862v7.173c1.426.391 2.561.747 3.406 1.069s1.601.788 2.268 1.397c.712.632 1.261 1.388 1.647 2.267.385.879.578 1.842.578 2.888 0 1.31-.308 2.538-.923 3.681-.615 1.144-1.52 2.078-2.716 2.802s-2.615 1.155-4.259 1.293v4.294c0 .678-.066 1.173-.198 1.483s-.423.466-.871.466c-.414 0-.704-.127-.871-.379-.166-.253-.25-.644-.25-1.173v-4.656c-1.345-.15-2.521-.466-3.526-.948-1.006-.483-1.845-1.083-2.518-1.802-.672-.718-1.17-1.466-1.491-2.242-.322-.776-.483-1.537-.483-2.285 0-.552.216-1.049.647-1.492.431-.442.968-.664 1.612-.664.518 0 .954.121 1.31.362s.604.581.742 1.017c.311.943.58 1.664.81 2.164s.578.957 1.043 1.371c.466.414 1.083.73 1.854.948v-8.018c-1.54-.425-2.828-.899-3.863-1.423-1.034-.523-1.874-1.267-2.517-2.233-.644-.966-.966-2.207-.966-3.725 0-1.977.629-3.598 1.888-4.863 1.259-1.264 3.078-2 5.458-2.207v-1.828c0-.966.362-1.448 1.086-1.448.735.003 1.103.475 1.103 1.417zm-2.19 11.829v-6.604c-.966.288-1.718.667-2.259 1.138-.54.472-.81 1.184-.81 2.138 0 .908.253 1.595.759 2.061.505.465 1.275.888 2.31 1.267zm2.19 5.121v7.553c1.161-.23 2.058-.695 2.69-1.397.632-.701.949-1.517.949-2.449 0-1-.308-1.773-.923-2.319-.616-.545-1.521-1.008-2.716-1.388z" fill="#eaa97d"/></g><g><path d="m62.058 203.85c-16.365 0-29.678-13.313-29.678-29.678 0-16.364 13.313-29.678 29.678-29.678 16.364 0 29.678 13.313 29.678 29.678-.001 16.364-13.314 29.678-29.678 29.678zm0-55.356c-14.159 0-25.678 11.519-25.678 25.678s11.519 25.678 25.678 25.678 25.678-11.519 25.678-25.678c-.001-14.159-11.52-25.678-25.678-25.678z" fill="#3762cc"/></g><g><path d="m128.491 217.101c.256.042.511.091.766.149l32.354 7.318c.236-5.67 4.893-10.197 10.621-10.197h12.831c1.063 0 2.019-.674 2.35-1.684 2.061-6.292 7.98-10.838 14.962-10.838h8.587c4.115 0 7.86 1.581 10.664 4.168.917.846 2.118 1.318 3.366 1.318h23v35.3h-21.287l-48.362 5.264c-2.778.302-5.588-.078-8.186-1.108l-44.782-17.752c-6.82-2.702-4.122-13.119 3.116-11.938z" fill="#f9cfcf"/></g><g><path d="m176.497 249.999c-2.416 0-4.829-.457-7.078-1.348l-44.782-17.751c-4.716-1.87-5.834-6.452-4.876-9.917 1.141-4.131 4.865-6.532 9.053-5.854.295.048.59.105.885.172l30.231 6.838c1.299-5.632 6.315-9.766 12.304-9.766h12.831c.205 0 .39-.126.449-.307 2.393-7.306 9.169-12.215 16.862-12.215h8.586c4.466 0 8.735 1.668 12.02 4.697.551.508 1.265.789 2.01.789h23c1.104 0 2 .896 2 2v35.3c0 1.104-.896 2-2 2h-21.179l-48.254 5.252c-.685.073-1.374.11-2.062.11zm-49.111-30.989c-2.146 0-3.365 1.568-3.771 3.038-.514 1.859.058 4.167 2.494 5.133l44.782 17.751c2.288.907 4.788 1.246 7.233.979l48.362-5.264c.072-.008.144-.012.216-.012h19.287v-31.3h-21c-1.752 0-3.43-.656-4.722-1.848-2.544-2.346-5.85-3.638-9.308-3.638h-8.586c-5.958 0-11.208 3.802-13.061 9.46-.6 1.832-2.308 3.062-4.25 3.062h-12.831c-4.642 0-8.43 3.637-8.623 8.28-.024.593-.311 1.145-.782 1.505-.471.361-1.077.493-1.657.363l-32.354-7.318c-.214-.048-.43-.09-.646-.125h-.001c-.272-.045-.534-.066-.782-.066z" fill="#3762cc"/></g><g><path d="m192.537 230.503h-27.459c-3.026 0-5.488-2.462-5.488-5.488 0-.034.001-.067.002-.101l.022-.446c.055-1.103.982-1.955 2.098-1.897 1.103.056 1.953.995 1.897 2.098l-.02.386c.021.802.681 1.448 1.488 1.448h27.459c1.104 0 2 .896 2 2s-.895 2-1.999 2z" fill="#3762cc"/></g><g><path d="m220.912 124.963h-81.942c-2.152 0-3.919 1.703-3.997 3.854l-2.191 59.892c-.083 2.265 1.731 4.146 3.997 4.146h86.324c2.266 0 4.08-1.881 3.997-4.146l-2.191-59.892c-.078-2.151-1.844-3.854-3.997-3.854z" fill="#4671c6"/></g><g><path d="m223.104 194.855h-86.324c-1.644 0-3.178-.652-4.319-1.835s-1.737-2.74-1.677-4.383l2.191-59.892c.118-3.242 2.752-5.781 5.996-5.781h81.942c3.244 0 5.877 2.539 5.996 5.781l2.191 59.892c.06 1.644-.536 3.2-1.677 4.384s-2.675 1.834-4.319 1.834zm-84.134-67.892c-1.081 0-1.959.847-1.999 1.927l-2.191 59.892c-.02.547.179 1.066.559 1.461s.892.612 1.44.612h86.324c.548 0 1.06-.217 1.44-.612s.579-.914.559-1.461l-2.191-59.891c-.04-1.081-.917-1.927-1.999-1.927h-81.942z" fill="#3762cc"/></g><g><path d="m190.783 108.988h-21.683c-4.549 0-8.25 3.701-8.25 8.251v20.156c0 1.632 1.328 2.96 2.959 2.96 1.632 0 2.96-1.328 2.96-2.96v-20.156c0-1.285 1.046-2.331 2.331-2.331h21.683c1.285 0 2.331 1.046 2.331 2.331v20.156c0 1.632 1.328 2.96 2.959 2.96 1.632 0 2.96-1.328 2.96-2.96v-20.156c0-4.549-3.701-8.251-8.25-8.251z" fill="#e0ebfc"/></g><g><path d="m196.073 142.354c-2.735 0-4.959-2.225-4.959-4.96v-20.155c0-.18-.151-.332-.331-.332h-21.683c-.18 0-.331.152-.331.332v20.155c0 2.735-2.225 4.96-4.96 4.96s-4.959-2.225-4.959-4.96v-20.155c0-5.652 4.598-10.251 10.25-10.251h21.683c5.652 0 10.25 4.599 10.25 10.251v20.155c0 2.735-2.225 4.96-4.96 4.96zm-26.973-29.446h21.683c2.388 0 4.331 1.943 4.331 4.332v20.155c0 .529.43.96.959.96s.96-.431.96-.96v-20.155c0-3.447-2.804-6.251-6.25-6.251h-21.683c-3.446 0-6.25 2.804-6.25 6.251v20.155c0 .529.43.96.959.96s.96-.431.96-.96v-20.155c0-2.389 1.943-4.332 4.331-4.332z" fill="#3762cc"/></g><g><path d="m156.633 149.522h-9.464c-.609 0-1.123.093-1.527.278-.432.197-.753.515-.956.947-.19.405-.286.924-.286 1.543v15.251c0 .896.216 1.585.642 2.047.433.47.998.708 1.68.708.672 0 1.232-.235 1.665-.699.427-.458.644-1.149.644-2.056v-6.223h6.304c.678 0 1.206-.162 1.569-.482.374-.33.563-.776.563-1.326 0-.547-.186-.994-.554-1.329-.359-.327-.89-.493-1.579-.493h-6.304v-4.455h7.602c.716 0 1.265-.17 1.634-.506.376-.343.567-.8.567-1.356 0-.548-.191-.999-.567-1.343-.368-.335-.917-.506-1.633-.506z" fill="#f9a7a7"/></g><g><path d="m176.628 164.576c-.516-.844-1.111-1.652-1.769-2.402-.475-.541-.974-.994-1.488-1.352 1.397-.395 2.482-.995 3.231-1.789.885-.938 1.334-2.201 1.334-3.754 0-.756-.132-1.482-.392-2.158-.261-.681-.651-1.287-1.156-1.802-.503-.513-1.092-.914-1.741-1.187-.54-.246-1.153-.411-1.822-.492-.65-.078-1.441-.117-2.348-.117h-6.53c-.946 0-1.652.226-2.097.671-.446.446-.672 1.151-.672 2.097v15.251c0 .873.202 1.554.6 2.024.411.485.991.731 1.722.731.681 0 1.243-.233 1.672-.693.423-.454.637-1.148.637-2.062v-6.06h1.098c.669 0 1.226.088 1.656.261.423.171.85.498 1.271.973.44.497.949 1.236 1.515 2.198l1.609 2.677c.377.63.683 1.117.908 1.448.241.355.534.652.871.884.357.247.798.372 1.31.372.426 0 .81-.087 1.142-.257.335-.173.604-.413.8-.714.199-.307.3-.625.3-.945 0-.3-.143-.779-.45-1.506-.288-.68-.695-1.453-1.211-2.297zm-10.818-11.423h3.397c1.658 0 2.357.148 2.652.273.443.185.779.456 1.026.826.247.371.367.79.367 1.283 0 .624-.15 1.113-.445 1.455-.304.35-.758.604-1.351.755-.63.16-1.423.241-2.358.241h-3.289v-4.833z" fill="#f9a7a7"/></g><g><path d="m194.8 166.152h-9.048v-5.023h8.021c.701 0 1.237-.172 1.592-.511.359-.343.541-.789.541-1.324 0-.538-.186-.981-.554-1.316-.359-.327-.89-.493-1.579-.493h-8.021v-4.252h8.737c.716 0 1.266-.17 1.634-.506.376-.343.567-.8.567-1.356 0-.548-.191-.999-.567-1.343-.368-.336-.918-.506-1.634-.506h-10.6c-.609 0-1.123.093-1.527.278-.432.197-.753.516-.955.947-.19.405-.286.924-.286 1.543v14.9c0 .945.223 1.65.663 2.095.441.447 1.149.673 2.105.673h10.911c.707 0 1.257-.175 1.635-.52.385-.352.58-.813.58-1.369 0-.574-.195-1.044-.58-1.397-.378-.345-.928-.52-1.635-.52z" fill="#f9a7a7"/></g><g><path d="m214.903 166.672c-.378-.345-.927-.52-1.634-.52h-9.048v-5.023h8.02c.701 0 1.237-.172 1.592-.511.359-.343.541-.789.541-1.324 0-.539-.186-.981-.553-1.316-.359-.327-.891-.492-1.58-.492h-8.02v-4.252h8.737c.716 0 1.266-.17 1.634-.506.376-.343.567-.8.567-1.356 0-.548-.191-.999-.567-1.343-.368-.336-.918-.506-1.634-.506h-10.6c-.609 0-1.123.093-1.527.278-.432.197-.753.516-.955.946-.19.404-.286.924-.286 1.544v14.9c0 .945.223 1.65.663 2.095.441.447 1.149.673 2.105.673h10.911c.707 0 1.257-.175 1.634-.52.385-.352.58-.813.58-1.369 0-.575-.195-1.045-.58-1.398z" fill="#f9a7a7"/></g></g></svg>