<svg id="Flat" height="512" viewBox="0 0 512 512" width="512" xmlns="http://www.w3.org/2000/svg"><path d="m488 480h-257l25-272h208z" fill="#2d85cc"/><rect fill="#e9eef2" height="448" rx="32" width="256" x="24" y="32"/><path d="m280 64h-256a32 32 0 0 1 32-32h192a32 32 0 0 1 32 32z" fill="#9aa3a8"/><path d="m280 448a32 32 0 0 1 -32 32h-192a32 32 0 0 1 -32-32z" fill="#9aa3a8"/><path d="m216 352h-144a8 8 0 0 1 0-16h144a8 8 0 0 1 0 16z" fill="#dadcde"/><circle cx="248" cy="344" fill="#dadcde" r="8"/><path d="m248 160h-24a8 8 0 0 0 -7.59 5.47l-6.176 26.53h-154.234a8 8 0 0 0 -7.845 9.569l8 40.013.011.055 7.986 39.932a8 8 0 0 0 7.848 6.431h128a8 8 0 0 1 0 16h-128a24.012 24.012 0 1 0 22.624 16h66.752a24 24 0 1 0 44.927-.846 24 24 0 0 0 3.074-45.245l6.454-32.272.011-.055 7.905-39.523 6.019-26.059h18.234a8 8 0 0 0 0-16zm-168 168a8 8 0 1 1 -8-8 8.009 8.009 0 0 1 8 8zm104 8a8 8 0 1 1 8-8 8.009 8.009 0 0 1 -8 8zm9.441-64h-16.6l2.4-24h19zm-49.441 0v-24h19.16l-2.4 24zm-32.76 0-2.4-24h19.16v24zm16.76-40h-20.76l-2.4-24h23.16zm16-24h23.16l-2.4 24h-20.76zm57.441 24h-20.6l2.4-24h23zm-112.681-24 2.4 24h-20.6l-4.8-24zm-15 40h19l2.4 24h-16.6z" fill="#eb423f"/><g fill="#1261a0"><path d="m416 256a8 8 0 0 1 -8-8v-72a40 40 0 0 0 -80 0v72a8 8 0 0 1 -16 0v-72a56 56 0 0 1 112 0v72a8 8 0 0 1 -8 8z"/><circle cx="320" cy="280" r="8"/><circle cx="416" cy="280" r="8"/></g><circle cx="136" cy="192" fill="#ffb632" r="48"/><path d="m128 216a7.974 7.974 0 0 1 -5.657-2.343l-8-8a8 8 0 0 1 11.314-11.314l2.343 2.344 18.343-18.344a8 8 0 0 1 11.314 11.314l-24 24a7.974 7.974 0 0 1 -5.657 2.343z" fill="#35a872"/></svg>