<svg xmlns="http://www.w3.org/2000/svg" xmlns:xlink="http://www.w3.org/1999/xlink" viewBox="0 0 345.56 236.17"><defs><style>.cls-1{fill:none;}.cls-2{isolation:isolate;}.cls-3{fill:#f4f1e5;}.cls-4{clip-path:url(#clip-path);}.cls-5,.cls-6{fill:#f7d8c3;}.cls-10,.cls-5,.cls-6,.cls-7,.cls-8,.cls-9{fill-rule:evenodd;}.cls-10,.cls-6,.cls-8{opacity:0.2;mix-blend-mode:multiply;}.cls-7,.cls-8{fill:#aad7c4;}.cls-10,.cls-9{fill:#ebe5ca;}</style><clipPath id="clip-path" transform="translate(0 0)"><rect class="cls-1" x="26.64" width="274.29" height="180.85"/></clipPath></defs><title>Asset 6</title><g class="cls-2"><g id="Layer_2" data-name="Layer 2"><g id="OBJECTS"><rect class="cls-3" x="26.64" width="274.29" height="180.85"/><g class="cls-4"><path class="cls-5" d="M64,171.88a53.09,53.09,0,0,0,8.43-13.35c1.92-4.64,2.86-9.63,4.47-14.4,6.48-19.18,24.73-33.82,44.86-36,5-.54,10.21-.34,14.89,1.51s8.83,5.53,10.38,10.33c2.78,8.59-3.08,17.7-2.4,26.71a10.08,10.08,0,0,0,2.85,6.81c2.82,2.54,7.35,2.25,10.63.36s5.62-5,7.87-8.1c4.29-5.84,8.81-11.84,15.17-15.3s15.14-3.6,20.16,1.62a25.13,25.13,0,0,1,4.14,6.64l17,34.91c2,4.05,4,8.44,3.26,12.89a5.62,5.62,0,0,1-1.47,3.18,7.39,7.39,0,0,1-4,1.53c-22.64,3.71-45.7,3.72-68.65,3.63q-21-.08-41.94-.25c-13.7-.11-27.49-.26-41-2.56-3.48-.59-15.87-1.45-16.78-6C51.17,182.75,61.73,174.67,64,171.88Z" transform="translate(0 0)"/><path class="cls-6" d="M60.42,213.16a53.27,53.27,0,0,0,8.43-13.35c1.92-4.65,2.86-9.64,4.47-14.4,6.47-19.18,24.73-33.82,44.85-36,5-.53,10.21-.33,14.9,1.52s8.82,5.53,10.38,10.32c2.78,8.6-3.08,17.71-2.41,26.71a10.05,10.05,0,0,0,2.86,6.82c2.82,2.54,7.34,2.25,10.63.36s5.62-5.05,7.87-8.1c4.28-5.84,8.8-11.84,15.17-15.3s15.13-3.61,20.16,1.61a25.15,25.15,0,0,1,4.13,6.65q8.49,17.44,17,34.91c2,4.05,4,8.44,3.26,12.88a5.65,5.65,0,0,1-1.47,3.19,7.45,7.45,0,0,1-4,1.53c-22.64,3.71-45.71,3.71-68.65,3.63q-21-.08-41.94-.25c-13.7-.11-27.49-.27-41-2.56-3.48-.59-15.87-1.45-16.78-6C47.56,224,58.12,216,60.42,213.16Z" transform="translate(0 0)"/><path class="cls-7" d="M215.82,94a76.56,76.56,0,0,1,17.28-4.29A161.24,161.24,0,0,1,251.32,88c3.32-.12,6.75-.12,9.84,1.13,2.76,1.12,5,3.15,7.45,4.9a42.72,42.72,0,0,0,20.9,7.91c5.09.48,10.64.16,14.84,3.1,9.64,6.73,6.34,23.24,6.26,33.21a390.64,390.64,0,0,1-2.07,39.89,9.73,9.73,0,0,1-1.53,5c-1.3,1.67-3.51,2.32-5.59,2.7a77.73,77.73,0,0,1-14.07.86c-12.42,0-24.85,0-37.28-.12-10.68-.12-23.74.7-33.52-4.2-9.38-4.7-16.33-13.12-22.49-21.39C177.32,138.54,191.38,103.75,215.82,94Z" transform="translate(0 0)"/><path class="cls-8" d="M250.16,128.78a76.56,76.56,0,0,1,17.28-4.29,161.07,161.07,0,0,1,18.21-1.67c3.33-.12,6.76-.12,9.84,1.13,2.77,1.12,5,3.15,7.46,4.9a42.58,42.58,0,0,0,20.89,7.9c5.1.49,10.65.17,14.85,3.1,9.64,6.74,6.34,23.24,6.26,33.22A387.77,387.77,0,0,1,342.87,213a9.55,9.55,0,0,1-1.53,5c-1.3,1.67-3.5,2.32-5.58,2.7a77.78,77.78,0,0,1-14.07.86c-12.43,0-24.85,0-37.28-.12-10.68-.13-23.74.7-33.52-4.2-9.38-4.7-16.33-13.12-22.49-21.39C211.66,173.32,225.72,138.53,250.16,128.78Z" transform="translate(0 0)"/><path class="cls-9" d="M80.05,179c4.84-4.53,8.6-11.78,5.51-17.64-1.88-3.55-5.71-5.51-9.1-7.67-5.48-3.49-10.57-8.52-11.62-14.93s2.13-12.7,4.69-18.69,4.51-13.14,1.28-18.8c-2.43-4.27-7.29-6.59-12.09-7.65-14.24-3.17-30.54,3.88-36.7,17.1-2.54,5.46-3.36,11.54-3.93,17.52a247.18,247.18,0,0,0,.11,47.58c.53,5.38,1.88,11.65,6.83,13.83a15.87,15.87,0,0,0,6.73.85C49,190.18,66.28,191.29,80.05,179Z" transform="translate(0 0)"/><path class="cls-10" d="M63.06,219.92c4.84-4.53,8.59-11.78,5.5-17.64-1.87-3.55-5.71-5.51-9.1-7.67-5.48-3.49-10.56-8.52-11.61-14.93S50,167,52.53,161s4.51-13.14,1.28-18.8c-2.43-4.27-7.29-6.59-12.08-7.65-14.24-3.17-30.55,3.88-36.71,17.1-2.54,5.46-3.36,11.54-3.92,17.52a247.18,247.18,0,0,0,.1,47.58c.53,5.38,1.89,11.65,6.83,13.83a15.92,15.92,0,0,0,6.74.85C32,231.11,49.28,232.22,63.06,219.92Z" transform="translate(0 0)"/></g><path class="cls-5" d="M294,79.88c1.94,3.79,0,8-4.93,10.4-5.15,2.46-11.3-.15-15.85-3.59a46.62,46.62,0,0,1-18.08-32c-.38-3.62.86-9.53,5.53-7.23,3.25,1.62,6,9.06,8.43,11.89,6.46,7.44,14.71,11.45,22.25,17.43A9.46,9.46,0,0,1,294,79.88Z" transform="translate(0 0)"/><path class="cls-9" d="M252.78,80.36a5.34,5.34,0,0,0-.13-5.43c-2.71-4.79-12.41-11.73-14.2-2.64C237.21,78.56,248.71,86.53,252.78,80.36Z" transform="translate(0 0)"/></g></g></g></svg>