<svg xmlns="http://www.w3.org/2000/svg" xmlns:xlink="http://www.w3.org/1999/xlink" viewBox="0 0 750 500"><defs><style>.cls-1{isolation:isolate;}.cls-2{fill:url(#linear-gradient);}.cls-3{fill:url(#linear-gradient-2);}.cls-4{fill:url(#linear-gradient-3);}.cls-5{fill:url(#linear-gradient-4);}.cls-6{fill:url(#linear-gradient-5);}.cls-7{fill:url(#linear-gradient-6);}.cls-8{fill:url(#linear-gradient-7);}.cls-9{fill:url(#linear-gradient-8);}.cls-10{fill:url(#linear-gradient-9);}.cls-11{mix-blend-mode:color-dodge;}.cls-12{fill:#f50057;opacity:0.24;mix-blend-mode:overlay;}</style><linearGradient id="linear-gradient" x1="254.32" y1="98.85" x2="551.31" y2="470.83" gradientUnits="userSpaceOnUse"><stop offset="0" stop-color="#311445"/><stop offset="0.12" stop-color="#401347"/><stop offset="0.34" stop-color="#660f4b"/><stop offset="0.64" stop-color="#a50852"/><stop offset="1" stop-color="#f8005c"/></linearGradient><linearGradient id="linear-gradient-2" x1="166.35" y1="103.28" x2="358.35" y2="371.28" gradientUnits="userSpaceOnUse"><stop offset="0" stop-color="#311445"/><stop offset="0.08" stop-color="#401347"/><stop offset="0.22" stop-color="#660f4b"/><stop offset="0.42" stop-color="#a50852"/><stop offset="0.66" stop-color="#f8005c"/><stop offset="0.72" stop-color="#f8065c"/><stop offset="0.79" stop-color="#f9175d"/><stop offset="0.87" stop-color="#fb335f"/><stop offset="0.96" stop-color="#fe5962"/><stop offset="1" stop-color="#ff7063"/></linearGradient><linearGradient id="linear-gradient-3" x1="132.15" y1="64.71" x2="322.44" y2="300.32" xlink:href="#linear-gradient-2"/><linearGradient id="linear-gradient-4" x1="108.05" y1="23.94" x2="223.05" y2="196.94" xlink:href="#linear-gradient"/><linearGradient id="linear-gradient-5" x1="50.76" y1="-35.09" x2="252" y2="236.89" xlink:href="#linear-gradient-2"/><linearGradient id="linear-gradient-6" x1="639.64" y1="501.41" x2="246.47" y2="127.9" xlink:href="#linear-gradient-2"/><linearGradient id="linear-gradient-7" x1="692.96" y1="539.5" x2="393.96" y2="264.5" xlink:href="#linear-gradient-2"/><linearGradient id="linear-gradient-8" x1="703.23" y1="581.21" x2="461.23" y2="303.21" xlink:href="#linear-gradient-2"/><linearGradient id="linear-gradient-9" x1="729.72" y1="-53.78" x2="546.81" y2="210.32" xlink:href="#linear-gradient-2"/></defs><title>Asset 2</title><g class="cls-1"><g id="Layer_2" data-name="Layer 2"><g id="BACKGROUND_1" data-name="BACKGROUND 1"><rect class="cls-2" width="750" height="500"/><path class="cls-3" d="M466.26,0s42.67,131-91,151.93C300.82,163.58,363.32,280.75,252.53,297,102.53,319,114.93,461.28,0,393V0Z"/><path class="cls-4" d="M0,326c88.53,33.87,171.63-6.66,223-73.64,59.11-77,1.5-136.33,121.9-129.33C437.31,128.37,439.08,38,423,0H0Z"/><path class="cls-5" d="M0,277c25.73-38.33,43.21-31,116.53-12,78.16,20.26,116.88-82,91-130s14-89,92-50C376.69,123.58,396,32,368,0H0Z"/><path class="cls-6" d="M.53,213s159.94,37.1,162-97c2-130,137-38,148-116H0Z"/><path class="cls-7" d="M513.53,0s-61,51,11,127,61,185-25,203-201-91.73-263,23C194.67,430.47,79.47,472,0,402v98H750V0Z"/><path class="cls-8" d="M750,162S607.65,100.37,600,282c-4.89,116.17-79.5,124.09-221.22,89.09C231.76,334.78,182.53,500,182.53,500H750Z"/><path class="cls-9" d="M267.86,500s5.34-71.67,84.95-85c73.88-12.37,183.72,69,218.72-14s122.33-14.67,116-116C683.3,217.39,750,216,750,216V500Z"/><path class="cls-10" d="M534.53,0s-43,64,35,93S719.47,51,750,145V0Z"/><g class="cls-11"><path class="cls-12" d="M408.53,0s34.58,154.25-114,104c-59-20-114.6-5-112,90C186.4,335.17,0,304,0,304V0Z"/><path class="cls-12" d="M83.53,500S129.87,363.86,235,411.38C364.69,470,330.22,359.58,426.62,358c68.56-1.13,92.24,91.2,177.91,76,84.88-15.06,5-186.26,145.47-157V500Z"/><path class="cls-12" d="M525.84,0S470.54,97.1,560,121.1,750,65.6,750,65.6V0Z"/></g></g></g></g></svg>