<svg id="Layer_1" enable-background="new 0 0 256 256" height="512" viewBox="0 0 256 256" width="512" xmlns="http://www.w3.org/2000/svg"><g><g><path d="m156.024 168.935h-56.048v-5.211c0-12.939 10.489-23.428 23.428-23.428h9.191c12.939 0 23.428 10.489 23.428 23.428v5.211z" fill="#f4efed"/></g><g><path d="m243.15 191.318h-230.3c-4.888 0-8.85-3.962-8.85-8.85v-141.796c0-4.888 3.962-8.85 8.85-8.85h230.3c4.888 0 8.85 3.962 8.85 8.85v141.796c0 4.888-3.962 8.85-8.85 8.85z" fill="#f4efed"/></g><g><path d="m243.15 31.822h-10c4.888 0 8.85 3.962 8.85 8.85v141.796c0 4.888-3.962 8.85-8.85 8.85h10c4.888 0 8.85-3.962 8.85-8.85v-141.796c0-4.888-3.962-8.85-8.85-8.85z" fill="#d6d1cf"/></g><g><path d="m12.85 191.318h10c-4.888 0-8.85-3.962-8.85-8.85v-141.796c0-4.888 3.962-8.85 8.85-8.85h-10c-4.888 0-8.85 3.962-8.85 8.85v141.796c0 4.888 3.962 8.85 8.85 8.85z" fill="#fff"/></g><g><path d="m208.901 224.178h-161.802v-11.854c0-4.888 3.962-8.85 8.85-8.85h144.102c4.888 0 8.85 3.962 8.85 8.85z" fill="#526faa"/></g><g><path d="m200.051 203.474h-10c4.888 0 8.85 3.962 8.85 8.85v11.855h10v-11.855c0-4.888-3.962-8.85-8.85-8.85z" fill="#34518c"/></g><g><path d="m55.949 203.474h10c-4.888 0-8.85 3.962-8.85 8.85v11.855h-10v-11.855c0-4.888 3.962-8.85 8.85-8.85z" fill="#708dc8"/></g><g><path d="m80.503 191.318h94.993v12.156h-94.993z" fill="#34518c"/></g><g><path d="m13 69.026c-1.104 0-2-.896-2-2v-12c0-1.105.896-2 2-2s2 .895 2 2v12c0 1.104-.896 2-2 2z" fill="#690589"/></g><g><path d="m208.901 226.178h-161.802c-1.104 0-2-.896-2-2v-11.855c0-5.983 4.867-10.85 10.851-10.85h144.102c5.983 0 10.851 4.867 10.851 10.85v11.855c-.002 1.105-.897 2-2.002 2zm-159.802-4h157.803v-9.855c0-3.777-3.073-6.85-6.851-6.85h-144.102c-3.777 0-6.851 3.073-6.851 6.85v9.855z" fill="#690589"/></g><g><path d="m175.497 205.474h-94.994c-1.104 0-2-.896-2-2v-12.155c0-1.105.896-2 2-2h94.994c1.104 0 2 .895 2 2v12.155c0 1.104-.895 2-2 2zm-92.994-4h90.994v-8.155h-90.994z" fill="#690589"/></g><g><path d="m243.15 193.318h-230.3c-5.982 0-10.85-4.867-10.85-10.85v-141.796c0-5.983 4.867-10.85 10.85-10.85h230.3c5.982 0 10.85 4.867 10.85 10.85v141.796c0 5.983-4.867 10.85-10.85 10.85zm-230.3-159.496c-3.777 0-6.85 3.073-6.85 6.85v141.796c0 3.777 3.072 6.85 6.85 6.85h230.3c3.777 0 6.85-3.073 6.85-6.85v-141.796c0-3.777-3.072-6.85-6.85-6.85z" fill="#690589"/></g><g><path d="m220.893 176.056h-163.432c-1.966 0-3.561-1.594-3.561-3.561 0-1.967 1.594-3.561 3.561-3.561h163.433c1.967 0 3.561 1.594 3.561 3.561-.001 1.967-1.595 3.561-3.562 3.561z" fill="#f4efed"/></g><g><path d="m220.894 178.056h-163.433c-3.066 0-5.561-2.495-5.561-5.561s2.494-5.561 5.561-5.561h163.433c3.066 0 5.561 2.495 5.561 5.561-.001 3.066-2.495 5.561-5.561 5.561zm-163.433-7.121c-.86 0-1.561.7-1.561 1.561s.7 1.561 1.561 1.561h163.433c.86 0 1.561-.7 1.561-1.561 0-.86-.7-1.561-1.561-1.561z" fill="#690589"/></g><g><path d="m31.546 172.495v-8.863l7.676 4.432 7.676 4.431-7.676 4.432-7.676 4.432z" fill="#ff4397"/></g><g><path d="m31.546 183.359c-.346 0-.69-.089-1-.268-.619-.357-1-1.018-1-1.732v-17.727c0-.714.381-1.375 1-1.732s1.381-.357 2 0l15.352 8.863c.619.357 1 1.018 1 1.732s-.381 1.374-1 1.732l-15.352 8.864c-.31.179-.654.268-1 .268zm2-16.263v10.798l9.352-5.399z" fill="#690589"/></g><g><path d="m156.023 170.935h-56.046c-1.104 0-2-.896-2-2v-5.211c0-14.021 11.407-25.428 25.428-25.428h9.191c14.02 0 25.428 11.407 25.428 25.428v5.211c-.001 1.104-.896 2-2.001 2zm-54.046-4h52.047v-3.211c0-11.815-9.612-21.428-21.428-21.428h-9.191c-11.815 0-21.428 9.613-21.428 21.428z" fill="#690589"/></g><g><path d="m128 148.384c-3.451 0-6.248-2.797-6.248-6.248v-6.903h12.496v6.903c0 3.451-2.797 6.248-6.248 6.248z" fill="#ff9f70"/></g><g><path d="m128 150.384c-4.548 0-8.248-3.7-8.248-8.248v-6.903c0-1.104.896-2 2-2h12.496c1.104 0 2 .896 2 2v6.903c0 4.548-3.7 8.248-8.248 8.248zm-4.248-13.151v4.903c0 2.342 1.905 4.248 4.248 4.248s4.248-1.906 4.248-4.248v-4.903z" fill="#690589"/></g><g><path d="m111.84 111.782h-1.155c-2.985 0-5.406 2.42-5.406 5.406 0 2.985 2.42 5.406 5.406 5.406h1.155z" fill="#ff9f70"/></g><g><path d="m145.347 111.782h-1.155v10.811h1.155c2.986 0 5.406-2.42 5.406-5.406 0-2.985-2.42-5.405-5.406-5.405z" fill="#ff9f70"/></g><g><path d="m128.016 139.262c-8.934 0-16.176-7.336-16.176-16.386v-11.344c0-9.05 7.242-16.386 16.176-16.386 8.934 0 16.176 7.336 16.176 16.386v11.344c0 9.05-7.242 16.386-16.176 16.386z" fill="#ff9f70"/></g><g><path d="m128.016 141.262c-10.022 0-18.176-8.248-18.176-18.386v-11.344c0-10.138 8.153-18.386 18.176-18.386s18.177 8.248 18.177 18.386v11.344c-.001 10.138-8.155 18.386-18.177 18.386zm0-44.116c-7.816 0-14.176 6.454-14.176 14.386v11.344c0 7.933 6.359 14.386 14.176 14.386s14.177-6.454 14.177-14.386v-11.344c-.001-7.932-6.36-14.386-14.177-14.386z" fill="#690589"/></g><g><path d="m111.84 124.594h-1.154c-4.084 0-7.406-3.322-7.406-7.406s3.322-7.406 7.406-7.406h1.154c1.104 0 2 .895 2 2v10.812c0 1.104-.896 2-2 2zm-2-10.705c-1.471.377-2.561 1.713-2.561 3.299s1.09 2.922 2.561 3.299z" fill="#690589"/></g><g><path d="m145.347 124.594h-1.154c-1.104 0-2-.896-2-2v-10.812c0-1.105.896-2 2-2h1.154c4.084 0 7.406 3.322 7.406 7.406 0 4.083-3.322 7.406-7.406 7.406zm.845-10.705v6.599c1.471-.377 2.561-1.713 2.561-3.299 0-1.587-1.09-2.923-2.561-3.3z" fill="#690589"/></g><g><path d="m146.87 50.216c-.819 0-1.62.074-2.401.207-3.229-5.764-9.393-9.661-16.469-9.661s-13.24 3.898-16.469 9.661c-.781-.134-1.582-.207-2.4-.207-7.811 0-14.142 6.332-14.142 14.142s6.332 14.142 14.142 14.142v29.243h37.739v-29.242c7.811 0 14.142-6.332 14.142-14.142s-6.332-14.143-14.142-14.143z" fill="#f4efed"/></g><g><path d="m146.87 109.744h-37.739c-1.104 0-2-.896-2-2v-27.367c-7.961-.988-14.143-7.795-14.143-16.02 0-8.901 7.241-16.142 16.143-16.142.451 0 .906.02 1.362.059 3.834-5.901 10.422-9.514 17.507-9.514s13.673 3.613 17.507 9.514c.456-.039.912-.059 1.363-.059 8.9 0 16.142 7.241 16.142 16.142 0 8.224-6.181 15.031-14.142 16.02v27.366c0 1.105-.895 2.001-2 2.001zm-35.739-4h33.739v-27.243c0-1.104.895-2 2-2 6.695 0 12.142-5.447 12.142-12.143s-5.446-12.142-12.142-12.142c-.679 0-1.373.06-2.064.178-.834.142-1.668-.254-2.083-.994-2.985-5.329-8.627-8.639-14.724-8.639s-11.738 3.311-14.724 8.639c-.415.739-1.25 1.136-2.083.994-.69-.118-1.385-.178-2.063-.178-6.695 0-12.143 5.447-12.143 12.142s5.447 12.143 12.143 12.143c1.104 0 2 .896 2 2v27.243z" fill="#690589"/></g><g><path d="m146.87 100.383h-37.739c-1.104 0-2-.896-2-2s.896-2 2-2h37.739c1.104 0 2 .896 2 2s-.895 2-2 2z" fill="#690589"/></g></g></svg>